<?xml version="1.0" encoding="utf-8"?>
<!-- Generator: Adobe Illustrator 19.1.0, SVG Export Plug-In . SVG Version: 6.00 Build 0)  -->
<svg version="1.1" id="Layer_1" xmlns="http://www.w3.org/2000/svg" xmlns:xlink="http://www.w3.org/1999/xlink" x="0px" y="0px"
	 viewBox="434 276 1480 241" style="enable-background:new 434 276 1480 241;" xml:space="preserve">
<style type="text/css">
	.st0{fill:#006BB5;}
	.st1{enable-background:new    ;}
	.st2{fill:#FFFFFF;}
</style>
<polygon class="st0" points="1898,484.9 507.4,484.9 450,484.9 450,308.1 1898,308.1 "/>
<g class="st1">
	<path class="st2" d="M598.3,354.3c4.1,0,7.9,0.6,11.2,1.8c3.3,1.2,6.1,2.9,8.5,5c2.3,2.1,4.1,4.7,5.4,7.7s1.9,6.2,1.9,9.8
		c0,3.1-0.4,5.9-1.3,8.5c-0.9,2.6-2,5.1-3.5,7.4c-1.5,2.4-3.2,4.6-5.2,6.8c-2,2.2-4.1,4.4-6.3,6.7l-16.4,16.8
		c2.1-0.6,4.2-1.1,6.2-1.5c2-0.4,4-0.5,5.8-0.5h15.6c1.9,0,3.4,0.5,4.5,1.6c1.1,1.1,1.7,2.4,1.7,4.2v10.3h-58.8v-5.7
		c0-1.1,0.2-2.3,0.7-3.6c0.5-1.3,1.3-2.4,2.4-3.4l24.1-24.3c2.1-2.1,3.9-4,5.4-5.9c1.5-1.9,2.8-3.7,3.8-5.5c1-1.8,1.7-3.6,2.2-5.5
		s0.7-3.7,0.7-5.8c0-3.3-0.8-5.9-2.4-7.7c-1.6-1.8-4-2.7-7.3-2.7c-1.3,0-2.6,0.2-3.7,0.6c-1.1,0.4-2.1,0.9-3,1.5
		c-0.9,0.7-1.6,1.4-2.3,2.3s-1.1,1.8-1.5,2.9c-0.6,1.7-1.4,3-2.3,3.7c-0.9,0.8-2.2,1.1-3.8,1.1c-0.4,0-0.8,0-1.2-0.1
		c-0.4,0-0.9-0.1-1.3-0.2l-9.4-1.7c0.6-4.2,1.8-7.8,3.5-10.9c1.7-3.1,3.9-5.7,6.5-7.7s5.5-3.6,8.9-4.6
		C590.9,354.8,594.4,354.3,598.3,354.3z"/>
	<path class="st2" d="M695.1,397c0,7.3-0.8,13.6-2.4,19c-1.6,5.4-3.7,9.8-6.5,13.3c-2.8,3.5-6.1,6.1-9.9,7.9
		c-3.8,1.7-7.9,2.6-12.4,2.6c-4.4,0-8.5-0.9-12.3-2.6c-3.8-1.7-7-4.3-9.8-7.9c-2.8-3.5-4.9-8-6.5-13.3c-1.5-5.4-2.3-11.7-2.3-19
		c0-7.3,0.8-13.6,2.3-19c1.5-5.4,3.7-9.8,6.5-13.3c2.8-3.5,6-6.1,9.8-7.8c3.8-1.7,7.9-2.6,12.3-2.6c4.4,0,8.6,0.9,12.4,2.6
		c3.8,1.7,7.1,4.3,9.9,7.8c2.8,3.5,4.9,8,6.5,13.3C694.3,383.4,695.1,389.7,695.1,397z M676.7,397c0-5.8-0.4-10.5-1.1-14.2
		c-0.7-3.7-1.7-6.6-2.9-8.7c-1.2-2.1-2.6-3.5-4.1-4.3c-1.5-0.8-3.1-1.2-4.6-1.2s-3.1,0.4-4.6,1.2c-1.5,0.8-2.8,2.2-4,4.3
		c-1.2,2.1-2.1,5-2.8,8.7s-1.1,8.4-1.1,14.2c0,5.8,0.4,10.6,1.1,14.2s1.6,6.6,2.8,8.7c1.2,2.1,2.5,3.6,4,4.4c1.5,0.8,3,1.2,4.6,1.2
		s3.1-0.4,4.6-1.2c1.5-0.8,2.9-2.2,4.1-4.4c1.2-2.1,2.2-5,2.9-8.7C676.4,407.6,676.7,402.8,676.7,397z"/>
	<path class="st2" d="M712.4,426h16.1v-42.2c0-2.1,0.1-4.2,0.2-6.5l-9.5,7.9c-0.6,0.5-1.2,0.9-1.8,1.1c-0.6,0.2-1.2,0.3-1.8,0.3
		c-1,0-1.9-0.2-2.7-0.7c-0.8-0.4-1.4-0.9-1.8-1.4l-5.6-7.5l26-21.9h14.7V426h13.8v12.9h-47.6V426z"/>
	<path class="st2" d="M822.4,362.6c0,1.2-0.2,2.3-0.6,3.3c-0.4,1-1,1.9-1.8,2.6s-1.9,1.3-3.2,1.7c-1.3,0.4-2.9,0.6-4.8,0.6h-20
		l-2.4,13.8c1.6-0.3,3.1-0.5,4.5-0.6c1.5-0.1,2.9-0.2,4.2-0.2c4.4,0,8.3,0.7,11.6,2c3.4,1.3,6.2,3.2,8.5,5.5s4,5,5.2,8.1
		c1.2,3.1,1.8,6.5,1.8,10c0,4.5-0.8,8.6-2.4,12.2c-1.6,3.7-3.8,6.9-6.6,9.6c-2.8,2.7-6.2,4.8-10.1,6.2c-3.9,1.5-8.2,2.2-12.9,2.2
		c-2.7,0-5.3-0.3-7.8-0.9c-2.5-0.6-4.8-1.3-6.9-2.3c-2.2-1-4.2-2.1-6-3.4c-1.8-1.3-3.5-2.6-5-4.1l5.5-7.3c0.6-0.8,1.2-1.3,2-1.8
		c0.8-0.4,1.6-0.6,2.5-0.6c1.1,0,2.2,0.3,3.2,0.9c1,0.6,2.1,1.3,3.3,2.1c1.2,0.7,2.6,1.4,4.2,2s3.6,0.9,6,0.9c2.4,0,4.4-0.4,6.1-1.2
		c1.7-0.8,3-1.9,4.1-3.2c1.1-1.4,1.8-2.9,2.3-4.8c0.5-1.8,0.7-3.8,0.7-5.8c0-4.1-1.1-7.1-3.4-9.3c-2.3-2.1-5.5-3.2-9.8-3.2
		c-3.7,0-7.4,0.7-11,2.1l-11-3l7.1-41.8h42.8V362.6z"/>
	<path class="st2" d="M903.5,407.1v31.8h-19.4v-31.8l-30.3-51.8h17.1c1.7,0,3,0.4,4,1.2c1,0.8,1.8,1.8,2.4,3l11.8,24.3
		c1,2,1.8,3.7,2.6,5.4c0.8,1.6,1.5,3.3,2.1,4.9c0.6-1.6,1.3-3.3,2.1-4.9c0.8-1.6,1.7-3.4,2.6-5.3l11.7-24.3c0.2-0.5,0.5-1,0.9-1.5
		c0.4-0.5,0.9-0.9,1.4-1.3c0.5-0.4,1.1-0.7,1.8-1c0.7-0.2,1.4-0.4,2.2-0.4h17.2L903.5,407.1z"/>
	<path class="st2" d="M993.9,355.3v14.9h-34.3v19.5h26.3V404h-26.3v19.9h34.3v14.9h-53.8v-83.6H993.9z"/>
	<path class="st2" d="M1083.3,438.8h-15c-1.7,0-3.1-0.4-4.2-1.2s-1.8-1.8-2.3-3l-4.9-14.6h-31.8l-4.9,14.6c-0.4,1.1-1.1,2-2.2,2.9
		c-1.1,0.9-2.5,1.3-4.1,1.3h-15.1l32.4-83.6h19.9L1083.3,438.8z M1029.6,406.9h22.8l-7.7-22.9c-0.5-1.5-1.1-3.2-1.7-5.1
		c-0.7-2-1.3-4.1-2-6.4c-0.6,2.3-1.2,4.5-1.9,6.5c-0.7,2-1.3,3.7-1.8,5.2L1029.6,406.9z"/>
	<path class="st2" d="M1110,407.9v30.9h-19.4v-83.6h27.2c6,0,11.2,0.6,15.5,1.9c4.3,1.2,7.7,3,10.4,5.2c2.7,2.2,4.7,4.8,5.9,7.9
		c1.2,3,1.8,6.3,1.8,9.9c0,2.7-0.4,5.3-1.1,7.7c-0.7,2.4-1.8,4.6-3.2,6.7c-1.4,2-3.2,3.9-5.3,5.5c-2.1,1.6-4.5,2.9-7.2,4
		c1.3,0.7,2.5,1.5,3.6,2.4s2.1,2.1,3,3.5l17.8,29.1h-17.6c-3.3,0-5.6-1.2-7-3.7l-13.9-24.3c-0.6-1.1-1.3-1.8-2.2-2.3
		c-0.8-0.5-2-0.7-3.5-0.7H1110z M1110,394.6h7.8c2.6,0,4.9-0.3,6.7-1c1.9-0.7,3.4-1.6,4.6-2.8c1.2-1.2,2-2.6,2.6-4.2
		c0.5-1.6,0.8-3.3,0.8-5.1c0-3.7-1.2-6.5-3.6-8.6c-2.4-2.1-6.1-3.1-11.1-3.1h-7.8V394.6z"/>
	<path class="st2" d="M1211.5,438.8H1192v-83.6h19.5V438.8z"/>
	<path class="st2" d="M1239.9,355.4c0.6,0.1,1.1,0.2,1.5,0.4c0.5,0.2,0.9,0.5,1.3,0.9c0.4,0.4,0.9,0.9,1.4,1.5l39.7,50.2
		c-0.2-1.6-0.3-3.2-0.3-4.7c-0.1-1.5-0.1-2.9-0.1-4.3v-44.2h17.1v83.6h-10.1c-1.5,0-2.8-0.2-3.8-0.7c-1-0.5-2-1.3-3-2.5l-39.4-49.8
		c0.1,1.5,0.2,2.9,0.3,4.3c0.1,1.4,0.1,2.7,0.1,3.9v44.8h-17.1v-83.6h10.2C1238.6,355.3,1239.3,355.3,1239.9,355.4z"/>
	<path class="st2" d="M1357,407.9v30.9h-19.4v-83.6h27.2c6,0,11.2,0.6,15.5,1.9c4.3,1.2,7.7,3,10.4,5.2c2.7,2.2,4.7,4.8,5.9,7.9
		c1.2,3,1.8,6.3,1.8,9.9c0,2.7-0.4,5.3-1.1,7.7s-1.8,4.6-3.2,6.7c-1.4,2-3.2,3.9-5.3,5.5c-2.1,1.6-4.5,2.9-7.2,4
		c1.3,0.7,2.5,1.5,3.6,2.4c1.1,1,2.1,2.1,3,3.5l17.8,29.1h-17.6c-3.3,0-5.6-1.2-7-3.7l-13.9-24.3c-0.6-1.1-1.3-1.8-2.2-2.3
		c-0.8-0.5-2-0.7-3.5-0.7H1357z M1357,394.6h7.8c2.6,0,4.9-0.3,6.7-1c1.9-0.7,3.4-1.6,4.6-2.8s2-2.6,2.6-4.2
		c0.5-1.6,0.8-3.3,0.8-5.1c0-3.7-1.2-6.5-3.6-8.6c-2.4-2.1-6.1-3.1-11.1-3.1h-7.8V394.6z"/>
	<path class="st2" d="M1468.3,355.3v14.9H1434v19.5h26.3V404H1434v19.9h34.3v14.9h-53.8v-83.6H1468.3z"/>
	<path class="st2" d="M1473,355.3h15.6c1.7,0,3.1,0.4,4.1,1.1c1.1,0.8,1.8,1.8,2.3,3l16.2,44.8c0.7,2,1.5,4.1,2.2,6.4
		s1.4,4.7,2.1,7.2c0.5-2.5,1.2-4.9,1.9-7.2c0.7-2.3,1.4-4.4,2.1-6.4l16.1-44.8c0.4-1.1,1.1-2,2.2-2.9c1.1-0.9,2.5-1.3,4.1-1.3h15.7
		l-33.5,83.6h-17.6L1473,355.3z"/>
	<path class="st2" d="M1586.2,438.8h-19.5v-83.6h19.5V438.8z"/>
	<path class="st2" d="M1656.1,355.3v14.9h-34.3v19.5h26.3V404h-26.3v19.9h34.3v14.9h-53.8v-83.6H1656.1z"/>
	<path class="st2" d="M1661.4,355.3h16.3c1.7,0,3.1,0.4,4.2,1.1c1.1,0.8,1.9,1.8,2.2,3l11.5,43.6c0.4,1.4,0.8,2.9,1.1,4.5
		c0.4,1.6,0.7,3.3,0.9,5c0.4-1.8,0.8-3.5,1.3-5.1c0.5-1.6,0.9-3.1,1.3-4.5l13.5-43.6c0.3-1.1,1.1-2,2.2-2.9c1.1-0.9,2.5-1.3,4.1-1.3
		h5.7c1.7,0,3.1,0.4,4.2,1.1c1.1,0.7,1.8,1.8,2.3,3.1l13.4,43.6c0.4,1.3,0.9,2.8,1.3,4.3c0.5,1.5,0.9,3.1,1.2,4.8
		c0.3-1.7,0.6-3.3,0.9-4.8c0.3-1.5,0.7-3,1-4.3l11.5-43.6c0.3-1.1,1-2.1,2.2-2.9c1.1-0.8,2.5-1.3,4.1-1.3h15.3l-25.8,83.6h-17.6
		L1724,387c-0.3-0.8-0.5-1.7-0.8-2.6c-0.3-1-0.6-2-0.8-3c-0.3,1.1-0.5,2.1-0.8,3c-0.3,1-0.6,1.8-0.8,2.6l-16,51.8h-17.6
		L1661.4,355.3z"/>
</g>
</svg>
