<?xml version="1.0" encoding="utf-8"?>
<!-- Generator: Adobe Illustrator 19.1.0, SVG Export Plug-In . SVG Version: 6.00 Build 0)  -->
<svg version="1.1" id="logo" xmlns="http://www.w3.org/2000/svg" xmlns:xlink="http://www.w3.org/1999/xlink" x="0px" y="0px"
	 viewBox="-259 373.6 76.3 94.3" style="enable-background:new -259 373.6 76.3 94.3;" xml:space="preserve">
<style type="text/css">
	.st0{fill:#0C65AF;}
</style>
<g>
	<g>
		<path class="st0" d="M-252.9,450.9c0-4.6,3.3-8.1,8.1-8.1c4.7,0,8.1,3.5,8.1,8.1s-3.3,8.1-8.1,8.1
			C-249.6,459.1-252.9,455.5-252.9,450.9z M-239,450.9c0-3.4-2.3-6.2-5.8-6.2s-5.8,2.8-5.8,6.2s2.3,6.2,5.8,6.2
			S-239,454.3-239,450.9z"/>
		<path class="st0" d="M-223,446.5c-0.9-1.1-2.3-1.8-3.7-1.8c-3.5,0-5.8,2.8-5.8,6.3c0,3.3,2.2,6,5.8,6c1.8,0,3.1-0.8,4-2.1l1.8,1.3
			c-0.5,0.6-2.3,2.7-5.9,2.7c-4.9,0-8-4.1-8-8c0-4.8,3.3-8.3,8.1-8.3c2,0,4.2,0.8,5.4,2.4L-223,446.5z"/>
		<path class="st0" d="M-218.4,443.2h2.1v6.4h8v-6.4h2.1v15.5h-2.1v-7.1h-8v7.1h-2.1V443.2z"/>
		<path class="st0" d="M-197.3,443.2h1.9l6.6,15.5h-2.5l-1.6-3.8h-7.4l-1.5,3.8h-2.5L-197.3,443.2z M-193.5,453l-2.9-7.1l0,0
			l-2.9,7.1H-193.5z"/>
	</g>
	<g>
		<g>
			<path class="st0" d="M-225.6,405.5c0-2.6,2.1-4.7,4.7-4.7l0,0c2.6,0,4.7,2.1,4.7,4.7l0,0c0,2.6-2.1,4.7-4.7,4.7l0,0v-0.3v-0.3
				c2.3,0,4.1-1.8,4.1-4.1l0,0c0-2.3-1.8-4.1-4.1-4.1l0,0c-2.3,0-4.1,1.8-4.1,4.1l0,0c0,2.3,1.8,4.1,4.1,4.1l0,0v0.3v0.3
				C-223.4,410.2-225.6,408.1-225.6,405.5L-225.6,405.5z"/>
			<path class="st0" d="M-229.3,405.5c0-4.7,3.8-8.5,8.5-8.5l0,0c4.7,0,8.5,3.8,8.5,8.5l0,0c0,4.7-3.8,8.5-8.5,8.5l0,0v-0.4v-0.3
				c4.3,0,7.9-3.5,7.9-7.9l0,0c0-4.3-3.5-7.9-7.9-7.9l0,0c-4.3,0-7.9,3.5-7.9,7.9l0,0c0,4.3,3.5,7.9,7.9,7.9l0,0v0.3v0.3
				C-225.5,413.9-229.3,410.1-229.3,405.5L-229.3,405.5z"/>
			<path class="st0" d="M-233.4,405.5c0-6.9,5.6-12.5,12.5-12.5l0,0c6.9,0,12.5,5.6,12.5,12.5l0,0c0,6.9-5.6,12.5-12.5,12.5l0,0
				v-0.3v-0.3c6.6,0,11.9-5.3,11.9-11.9l0,0c0-6.6-5.4-11.9-11.9-12l0,0c-6.6,0-11.9,5.3-12,12l0,0c0,6.6,5.4,11.9,12,11.9l0,0v0.3
				v0.3C-227.8,418-233.4,412.4-233.4,405.5L-233.4,405.5z"/>
			<path class="st0" d="M-237.3,405.5c0-9.1,7.4-16.5,16.4-16.5l0,0c9.1,0,16.5,7.4,16.5,16.5l0,0c0,9.1-7.4,16.4-16.5,16.4l0,0
				v-0.3v-0.3c8.8,0,15.8-7.1,15.9-15.9l0,0c0-8.7-7.1-15.8-15.8-15.8l0,0c-8.8,0-15.8,7.1-15.9,15.9l0,0c0,8.8,7.1,15.8,15.9,15.9
				l0,0v0.2v0.3C-229.9,421.9-237.3,414.5-237.3,405.5L-237.3,405.5z"/>
			<path class="st0" d="M-241.6,405.5c0-11.5,9.3-20.8,20.8-20.8l0,0c11.5,0,20.8,9.3,20.8,20.8l0,0c0,11.5-9.3,20.8-20.8,20.8l0,0
				V426v-0.4c11.1,0,20.2-9,20.2-20.2l0,0c0-11.1-9-20.2-20.2-20.2l0,0c-11.2,0.1-20.2,9.1-20.2,20.3l0,0c0,11.1,9,20.1,20.2,20.1
				l0,0v0.3v0.3C-232.3,426.2-241.6,416.9-241.6,405.5L-241.6,405.5z"/>
			<g>
				<g>
					<polygon class="st0" points="-221.1,401 -221.1,385 -220.5,385 -220.5,401 					"/>
				</g>
			</g>
			<g>
				<g>
					<polygon class="st0" points="-235.5,391.2 -235.1,390.8 -223.7,402.1 -224.2,402.5 					"/>
				</g>
			</g>
			<g>
				<g>
					<polygon class="st0" points="-241.3,405.8 -241.3,405.2 -225.3,405.2 -225.3,405.8 					"/>
				</g>
			</g>
			<g>
				<g>
					<polygon class="st0" points="-235.5,419.7 -224.2,408.4 -223.7,408.8 -235.1,420.1 					"/>
				</g>
			</g>
			<g>
				<g>
					<polygon class="st0" points="-221.1,425.9 -221.1,409.9 -220.5,409.9 -220.5,425.9 					"/>
				</g>
			</g>
			<g>
				<g>
					<polygon class="st0" points="-217.9,408.8 -217.5,408.4 -206.2,419.7 -206.6,420.1 					"/>
				</g>
			</g>
			<g>
				<g>
					<polygon class="st0" points="-216.4,405.8 -216.4,405.2 -200.4,405.2 -200.4,405.8 					"/>
				</g>
			</g>
			<g>
				<g>
					<polygon class="st0" points="-217.9,402.1 -206.6,390.8 -206.2,391.2 -217.5,402.5 					"/>
				</g>
			</g>
		</g>
		<g>
			<path class="st0" d="M-224,406.8c0.2,0,0.1,0.1,0.2,0.2c0,0,0,0,0.1,0c0.3-0.3,0.4-0.6,0.5-1l0.1-0.1c0-0.2-0.2-0.2-0.3-0.4
				c-0.1,0.3-0.4,0-0.6,0.2v0.1c0.1,0,0.2,0,0.2,0.1s0,0.2,0,0.3h-0.1c-0.1-0.2-0.3-0.2-0.5-0.2c0.1,0.1-0.1,0,0,0.1
				c-0.3-0.1-0.5,0.1-0.8,0.1c-0.1,0-0.2-0.1-0.2-0.1c-0.1,0.1-0.2,0.3-0.3,0.2c0,0-0.1-0.1-0.1-0.2c0.1-0.1,0.3-0.2,0.3-0.3
				c0.1-0.1,0-0.3,0.1-0.4c0.1-0.2,0.2-0.3,0.3-0.3c0.2,0,0.5,0.1,0.6,0c0,0,0.1,0.1,0.2,0.2v0.1c-0.1,0.1-0.2,0.1-0.3,0.3
				c0,0.1,0,0.2,0.1,0.2c0.1,0.1,0.2-0.1,0.2-0.2c0.1-0.1,0.1,0,0.2,0v-0.1c0.1,0,0.3,0,0.5,0c0.2,0,0.1-0.4,0.1-0.6
				c0,0,0-0.1,0-0.2v-0.1c0.1-0.1,0.3-0.2,0.3,0v0.1c0,0.1,0,0.1,0.1,0.1c0,0,0,0,0-0.1s0-0.2,0.1-0.2c0.1-0.1,0.2,0.1,0.3,0.1
				c0.1,0,0.2,0,0.3,0c0.1,0,0.1-0.1,0-0.2h-0.1c-0.1,0.1-0.2,0.1-0.3,0.1s-0.2-0.1-0.2-0.2c-0.1-0.1-0.2,0.1-0.3,0
				c-0.1,0-0.2-0.2-0.1-0.3c0,0,0.1-0.1,0.2-0.1c0.1-0.1,0.3-0.1,0.4-0.2c0.1-0.1,0.1-0.2,0.1-0.3c0-0.1,0.1-0.1,0.1-0.1
				c0.2-0.1,0.3,0,0.5-0.1c0.2-0.1,0.3-0.2,0.4-0.3c0.1,0,0.1-0.1,0.2-0.1l0.1-0.1c0-0.3,0-0.5,0-0.8c0-0.1,0.1-0.1,0.1-0.2h-0.1
				c-0.1,0-0.1-0.2,0-0.2c0.1-0.1,0.2,0,0.3-0.1c0.1-0.1,0-0.4-0.1-0.4c-0.1-0.1-0.3,0.1-0.5,0c0,0.1-0.1,0.1-0.1,0.1
				c-0.2,0.1-0.2-0.2-0.2-0.3l0,0l0.1-0.1h-0.1c-0.2,0.1-0.3,0.3-0.4,0.4v0.1c0,0,0,0.1,0.1,0c0,0.1,0,0.3-0.2,0.3c0,0,0,0,0-0.1
				c0,0-0.2-0.1-0.2,0c0,0.1,0.2,0.2,0.2,0.3c-0.1,0.2-0.3,0.2-0.5,0.3c-0.4,0.2-0.8,0-1.3,0.1c-0.2,0-0.5,0-0.7-0.1
				c-0.2,0-0.2,0.1-0.3,0.2l0,0c0-0.1,0-0.2,0-0.3c0-0.1-0.1-0.1-0.1-0.1c-0.3-0.5-1-0.5-1.5-0.4c-0.1,0-0.1,0.1-0.2,0.2
				c-0.1,0.1-0.3,0-0.4,0.1c-0.1,0-0.1,0.1-0.1,0.1c-0.2,0-0.3-0.1-0.5,0c-0.1,0.1-0.2,0.1-0.3,0.1c0,0,0,0.1,0,0.2h-0.1
				c-0.1,0-0.4,0-0.4,0.2c0,0,0,0,0.1,0c0.1,0.2,0,0.4-0.2,0.4c-0.2,0.1-0.4,0-0.6,0.1c-0.1,0-0.2,0.1-0.2,0.2
				c-0.3,0.5-0.6,1-0.6,1.6c0,0,0,0,0,0.1l0.1,0.1c-0.3,0.6-0.5,0.9-0.8,1.5c-0.1,0.2-0.3,0.8-0.1,1c0.1,0.1-0.1,0.3-0.2,0.4
				c-0.2,0-0.5,0-0.6-0.3c0-0.1-0.2-0.1-0.4-0.1l0,0h-0.1c-0.2,0-0.3,0-0.5,0c-0.3,0.1-0.3,0.4-0.4,0.6c-0.1,0.2-0.4,0.1-0.5,0.3
				c0,0.1,0,0.2,0,0.3c0,0.1-0.1,0.1-0.2,0.2c0,0,0,0.1-0.1,0.2c-0.1,0.2-0.1,0.4-0.1,0.7c0,0.1,0,0.1,0,0.2c0.1,0.2,0,0.5-0.1,0.7
				c-0.2,0.2-0.4,0.2-0.7,0.3c-0.1,0-0.2-0.1-0.4,0c-0.3,0.1-0.6-0.1-0.9,0c0,0-0.1,0-0.1,0.1c-0.4-0.4-0.5-0.6-0.5-0.6
				c-0.1-0.1-0.1-0.2-0.2-0.3c-0.2-0.1-0.4,0-0.5,0.2c0.1,0,0,0.1,0.1,0.1c-0.2,0-0.3,0.2-0.5,0.2c-0.2,0.1-0.2-0.2-0.2-0.4
				c0-0.1-0.2-0.2-0.3-0.1l-0.1,0.1c0,0-0.1-0.1-0.1,0c-0.1,0.1,0.1,0.1,0.2,0.2c0,0,0,0.1-0.1,0.1c-0.1,0.1-0.2-0.1-0.2,0
				c0,0.1-0.1,0.1-0.2,0.1c0,0,0,0,0,0.1l0,0c-0.1,0-0.1,0.1-0.2,0c-0.1,0,0-0.1-0.1-0.2h-0.1c0,0.1,0,0.2-0.1,0.2
				c0,0.1,0,0.1,0,0.2c0.1,0,0.2-0.1,0.2,0c0.1,0.1,0.1,0.3,0.1,0.5l0,0c0,0.1,0,0.3-0.1,0.2c-0.1-0.1,0-0.3-0.1-0.4
				c0,0-0.1,0-0.2,0c0.1,0.2-0.1,0.4,0.1,0.7c0.1,0.1-0.2,0.2-0.1,0.3c0.1,0.1,0.2,0.1,0.3,0.1c0.1,0,0-0.1,0-0.1s0.2-0.1,0.2,0
				c0,0,0,0.1,0,0.2c-0.1,0-0.1,0-0.2,0c0.1,0.1,0,0.2-0.1,0.4c0,0,0,0.1,0.1,0.1c0,0.1,0.2,0,0.3,0.1c0,0.1-0.1,0.2,0,0.2
				c0,0.1,0.1,0,0.2,0.1c0.1,0,0,0.1,0,0.2c0.1,0,0.2,0.1,0.1,0.2c0.1,0,0.1-0.1,0.1-0.1c0.2,0,0.1-0.2,0.1-0.3
				c-0.1,0-0.1-0.1-0.1,0c0-0.1,0-0.2,0-0.3c0-0.1-0.2-0.1-0.2-0.2c0.1,0,0.2,0,0.3-0.1c0-0.1,0.1,0,0.2,0.1c0,0,0,0,0,0.1
				c0.1,0,0.1,0.1,0.1,0.1c0.1,0.1,0.1,0.2,0.2,0.2c0.2,0,0.3,0,0.5,0c0-0.1,0-0.1,0-0.2c0.1-0.1,0.1,0.1,0.2,0.1
				c0,0.2,0,0.3,0.2,0.4h0.1l0.1,0.1h0.1c0.1,0,0.1,0.1,0.1,0.2c0,0,0,0,0,0.1c0.1,0,0.3,0,0.3,0.1c0.1,0.2,0.2,0.3,0.3,0.5
				c0,0.1,0.2,0.1,0.2,0.2s0.1,0.1,0.1,0.1c0.1,0.1,0.2,0.1,0.4,0.2c0,0,0.1-0.1,0.2-0.1h0.1c0.1,0.2,0.2,0.5,0.4,0.6
				c0.1,0.1,0.1,0.2,0.3,0.2c0.1,0,0.2-0.1,0.2,0l0.1,0.1c0.2,0.1,0.3,0.2,0.3,0.3c0,0,0,0.1,0.1,0.1c0.1,0,0.3-0.1,0.3,0
				c0.1,0.1,0.2,0.1,0.3,0.2c0,0,0.1,0.1,0.1,0c0,0,0-0.1,0-0.2s0.1-0.1,0.2-0.1c0.1,0,0.1-0.2,0.2-0.2c0.2,0,0.2,0.2,0.4,0.3
				c0,0,0.1,0,0.1,0.1c0.2,0.1,0.1,0.4,0.3,0.4c0.2,0,0.3,0.2,0.5,0.2c0.1,0,0.3,0.1,0.4,0.2c0,0,0.1,0,0.2,0c0.1,0,0.2-0.1,0.2-0.1
				c0.2-0.1,0.4-0.1,0.6-0.2l0.1-0.1c0.3-0.1,0.7,0.1,1-0.1c0.1,0,0.2,0,0.3-0.1c0.2-0.1,0.3-0.4,0.2-0.6c-0.1-0.3-0.3-0.7-0.5-1
				c-0.1-0.1-0.3-0.2-0.4-0.4c0,0-0.1,0-0.2-0.1s-0.1-0.2-0.1-0.3c0,0-0.1,0-0.2-0.1c0-0.1,0-0.2,0-0.3c0,0,0-0.1-0.1-0.1
				c-0.2,0-0.3-0.1-0.5-0.1c-0.1,0-0.1-0.1-0.2-0.1v-0.1c0.1-0.1,0.2-0.2,0.4-0.2c0-0.1-0.1-0.2,0-0.2c0.1-0.1,0.1-0.2,0-0.3
				c0,0,0-0.1-0.1-0.1c0-0.2,0.1-0.3,0-0.5c-0.1-0.1-0.3-0.2-0.3-0.4l-0.1-0.1c0-0.2,0.1-0.4,0-0.6c0-0.1-0.1-0.2-0.1-0.3
				c0,0,0.1-0.1,0.2-0.1c0.1-0.1,0.2-0.2,0.1-0.3c-0.1-0.1-0.2,0-0.3,0c0,0-0.1,0-0.1-0.1s0.1-0.2,0-0.3c-0.1,0-0.1-0.1-0.2-0.1
				c-0.1-0.1,0-0.2,0.1-0.3c0,0,0-0.1-0.1-0.1c0-0.1,0.1-0.2,0-0.3c0-0.1-0.1-0.2-0.2-0.2l0,0c-0.1,0.1-0.1,0.1-0.2,0v-0.1
				c0-0.1,0.1,0,0.2-0.1s0-0.2,0-0.3c0.3,0,0.3-0.1,0.3-0.3c-0.2,0-0.4,0-0.4-0.3c0-0.2,0-0.4-0.1-0.6c0-0.2,0-0.3,0.1-0.4l0.1-0.1
				c0.2,0,0.5,0,0.6-0.2c0.1-0.2-0.1-0.4,0-0.5c0.2-0.2,0.6-0.1,0.8-0.2c0.1-0.1,0.1-0.2,0-0.3c0-0.1-0.1-0.2-0.2-0.3
				c-0.1-0.1-0.3-0.1-0.4-0.2c0-0.1,0-0.2,0-0.2c0-0.1,0.1-0.2,0.3-0.3c0.3-0.1,0.5,0,0.7,0.1c0.1,0,0.1,0.1,0.2,0.2v0.1
				c0.1,0.3,0.2,0.6,0.1,0.8c0,0.1-0.2,0.1-0.1,0.3c0.1-0.1,0.1,0,0.1,0.1c0.1,0.2,0.2,0.5,0,0.6c-0.2,0.1-0.2,0-0.4,0
				c-0.1,0-0.2,0-0.2,0.1c0,0.1,0.1,0.2,0.1,0.2c0.5,0.1,0.8,0.2,1.3,0.3c0.1,0,0.2,0.2,0.3,0.2c0.1,0,0.2,0.1,0.3-0.1h0.1
				c0,0.1,0.1,0.1,0.2,0.1c0.2,0.1,0.1,0.5,0.3,0.4c0.1-0.1,0.2,0,0.3,0c-0.1,0.2-0.1,0.3,0.1,0.5c0.1,0.1,0.2,0.2,0.4,0.3
				c0.1,0.1,0.2,0.1,0.3-0.1c0-0.2-0.1-0.3,0.1-0.5c0.2,0.3-0.1,0.6,0.2,0.9c0,0,0,0,0,0.1c0.1,0.1,0.2,0.2,0.3,0.2
				c0.1,0,0.1-0.1,0.2-0.2v-0.1c0-0.1,0.1-0.2,0.1-0.2c0-0.1,0.2-0.2,0.2-0.4v-0.1c0-0.2,0.2-0.3,0.4-0.3c0.1,0,0,0,0.1-0.1
				c0.1-0.1,0.1-0.2,0.1-0.3c0.1-0.1,0.1-0.2,0.2-0.2c0-0.1,0.1-0.1,0.1-0.2C-224.1,406.9-224.1,406.8-224,406.8z"/>
			<path class="st0" d="M-229.9,406.4c-0.1-0.1-0.1,0-0.2,0c-0.1,0.1-0.1,0.1,0,0.2c0,0.1,0.1,0.1,0.1,0.2s0,0.3,0,0.4
				c0,0.1,0.2,0.3,0.2,0.2c0.1-0.1,0.2-0.4,0.1-0.5C-229.8,406.8-229.8,406.5-229.9,406.4z"/>
			<path class="st0" d="M-230.2,407.7c0,0.1,0,0.1,0.1,0.1c0,0.1,0.2,0.1,0.3,0c0,0,0-0.1-0.1-0.2
				C-229.9,407.6-230,407.6-230.2,407.7L-230.2,407.7C-230.2,407.6-230.2,407.6-230.2,407.7z"/>
			<path class="st0" d="M-229.9,408.2c0-0.2-0.2-0.3-0.3-0.2c-0.2,0.2,0,0.4,0.2,0.6c0,0,0,0.1,0.1,0.2c0.1,0.1,0.2,0,0.2,0
				c0-0.1,0.1-0.1,0.1-0.2C-229.6,408.5-229.7,408.2-229.9,408.2z"/>
			<path class="st0" d="M-230.3,407.1L-230.3,407.1c-0.2,0-0.2,0.1-0.2,0.1c0,0.1,0,0.2,0.1,0.3c0,0,0.1,0,0.1-0.1
				C-230.2,407.4-230.3,407.2-230.3,407.1z"/>
			<path class="st0" d="M-229.7,408c0,0,0.1-0.1,0.1-0.2c0.1,0,0.1,0,0.2-0.1v-0.1c-0.1,0-0.2,0.1-0.3,0.2
				C-229.9,407.9-229.8,408-229.7,408z"/>
			<path class="st0" d="M-229.9,409.2c0,0.1,0,0.2,0.1,0.2h0.1c0-0.1,0.1-0.1,0-0.2l0,0C-229.8,409.2-229.8,409.3-229.9,409.2z"/>
			<path class="st0" d="M-229.5,410.3c0-0.1,0.1-0.2,0-0.3h-0.1C-229.6,410.1-229.6,410.2-229.5,410.3z"/>
			<path class="st0" d="M-238.5,413.8c0,0,0,0.1,0,0.2c0,0,0.1,0,0.2,0C-238.3,413.9-238.3,413.7-238.5,413.8z"/>
			<path class="st0" d="M-237.5,414.7c-0.1,0.1,0.1,0.3,0.3,0.3c0-0.1,0-0.2,0-0.2C-237.3,414.7-237.5,414.7-237.5,414.7z"/>
			<path class="st0" d="M-237.1,415.3c0,0.3,0.1,0.4,0.3,0.5C-236.8,415.5-236.9,415.3-237.1,415.3z"/>
			<path class="st0" d="M-222.9,408.1c0.2-0.1,0.5-0.1,0.8-0.1c0.6,0,0.6-0.8,0.9-1.3c0.1-0.1,0-0.4-0.1-0.5c-0.2-0.3-0.9,0-1-0.3
				c-0.1-0.2,0.4,0.1,0.5-0.2c0-0.1,0-0.2-0.1-0.2c-0.1,0-0.3-0.1-0.3,0c-0.3,0.3-0.4,0.8-0.6,1.1c-0.4,0.6-1,1.1-1.3,1.7
				c-0.1,0.1,0,0.2,0.1,0.2C-223.6,408.6-223.2,408.1-222.9,408.1z"/>
			<path class="st0" d="M-220.3,406.5c-0.1,0-0.2,0.1-0.2,0.1c0,0.1-0.1,0.2,0,0.3h0.2c0.1-0.1,0-0.2-0.1-0.2
				C-220.4,406.7-220.3,406.6-220.3,406.5z"/>
			<path class="st0" d="M-222.2,408.7c0.2,0.2,0.7,0.2,0.6-0.1c-0.1-0.2-0.4-0.3-0.6-0.2C-222.3,408.4-221.9,408.6-222.2,408.7z"/>
			<path class="st0" d="M-221.5,410.5c0.2-0.1,0.1-0.3,0.1-0.5c-0.2,0.1-0.3,0.2-0.4,0.5C-221.7,410.5-221.6,410.5-221.5,410.5z"/>
			<path class="st0" d="M-219,406.8v-0.2c0,0-0.1,0-0.2,0c-0.1,0-0.1-0.1-0.1-0.2s-0.1-0.2-0.1-0.4c-0.2,0.1-0.1,0.2-0.1,0.3
				C-219.4,406.5-219.3,406.8-219,406.8z"/>
			<path class="st0" d="M-222.4,405C-222.5,405-222.5,405-222.4,405c-0.1,0.1,0,0.1,0.1,0.1C-222.3,405.1-222.3,405-222.4,405z"/>
			<path class="st0" d="M-239,410.4c0-0.1,0-0.1-0.1-0.1c-0.1-0.1-0.1,0-0.2-0.1c0,0.1,0,0.1,0,0.2
				C-239.2,410.5-239.1,410.5-239,410.4z"/>
			<path class="st0" d="M-238.1,410.4c0.1,0,0.2-0.1,0.2-0.2l0,0c-0.2-0.1-0.4-0.1-0.3,0.1C-238.3,410.4-238.2,410.5-238.1,410.4z"
				/>
			<path class="st0" d="M-222,400.5c0-0.1,0.2-0.1,0.2-0.2c0,0-0.1,0-0.2,0C-222,400.2-222,400.3-222,400.5
				C-222,400.4-222.1,400.4-222,400.5C-222.1,400.5-222,400.5-222,400.5z"/>
			<path class="st0" d="M-221.5,400.3c0,0,0.1-0.1,0-0.2c-0.1-0.1-0.2-0.1-0.2,0C-221.7,400.2-221.6,400.4-221.5,400.3z"/>
			<path class="st0" d="M-223,404.1c-0.1,0.2,0.2,0.4,0.4,0.3c0.1-0.1,0.1-0.3,0-0.3C-222.8,403.9-223,404-223,404.1z"/>
			<path class="st0" d="M-222.7,405.1c0.1-0.1,0-0.1-0.1-0.2c-0.1,0-0.2,0-0.3,0c0,0,0,0-0.1,0c0,0.1,0,0.1,0.1,0.1
				C-222.8,405.1-222.7,405.2-222.7,405.1z"/>
			<path class="st0" d="M-223.1,405.5c-0.1,0-0.1,0.2,0,0.3c0.1,0,0.2,0,0.3-0.1c0-0.1,0.1-0.2,0-0.3
				C-222.9,405.3-223,405.4-223.1,405.5z"/>
			<path class="st0" d="M-223.4,405.1c0,0.1-0.1,0.3,0,0.4c0,0.1,0.1,0.1,0.2,0c0-0.1,0-0.2,0.1-0.3c0,0-0.1-0.1-0.1,0v-0.1
				C-223.3,405-223.3,405.1-223.4,405.1z"/>
			<path class="st0" d="M-221.5,412.9L-221.5,412.9L-221.5,412.9L-221.5,412.9z"/>
			<path class="st0" d="M-212.5,415L-212.5,415C-212.5,415-212.6,415-212.5,415C-212.6,415-212.5,415-212.5,415z"/>
			<path class="st0" d="M-220.8,409.6L-220.8,409.6c-0.1-0.1-0.2-0.1-0.2-0.2c-0.1-0.1-0.1,0.1-0.2,0.1c0,0,0,0,0,0.1
				c0.1,0.1,0,0.2-0.1,0.3c0,0.1,0.1,0.1,0.1,0.2c0,0.1-0.1,0.2,0,0.3c0,0-0.1,0.1-0.1,0.2c0,0-0.1,0.1,0,0.2
				c0.1,0.1,0.3-0.1,0.4-0.1c0.1,0,0.1,0,0.2-0.1c0.1-0.1,0.2-0.1,0.2-0.2l-0.2-0.1c0.1-0.2,0-0.3,0-0.5
				C-220.8,409.7-220.7,409.6-220.8,409.6z"/>
			<path class="st0" d="M-219.9,412.3C-219.9,412.3-219.8,412.3-219.9,412.3c0.2-0.1,0.2-0.2,0.1-0.3c0-0.1-0.2-0.1-0.2,0
				C-220,412.2-219.9,412.2-219.9,412.3z"/>
			<path class="st0" d="M-219.8,411.9c0.1,0,0-0.1,0-0.2h-0.1C-219.9,411.8-219.9,411.9-219.8,411.9z"/>
			<path class="st0" d="M-218.9,412.3C-219,412.3-219,412.3-218.9,412.3c-0.1,0-0.2-0.1-0.3-0.1h-0.1c0,0.1,0,0.2,0,0.2
				C-219.2,412.4-219,412.4-218.9,412.3z"/>
			<path class="st0" d="M-217.5,412.2L-217.5,412.2c-0.1-0.1-0.2,0-0.4,0c0,0.1,0,0.1,0,0.1h-0.1
				C-217.8,412.4-217.6,412.2-217.5,412.2z"/>
			<path class="st0" d="M-216.9,411.7c0.1,0.2,0.3,0.1,0.3,0C-216.6,411.6-216.7,411.6-216.9,411.7
				C-216.8,411.7-216.8,411.7-216.9,411.7C-216.8,411.6-216.9,411.6-216.9,411.7z"/>
			<path class="st0" d="M-210.2,407.2c0,0.1,0.2,0.1,0.3,0.2c0.1,0,0.3,0,0.4-0.1c0.1-0.2-0.2-0.4-0.4-0.4
				C-210.1,406.9-210.1,407-210.2,407.2z"/>
			<path class="st0" d="M-210.1,414.4c-0.1,0-0.2,0-0.2,0c-0.2,0.7-0.8,1.7,0,2.1c0.3,0.2,0.8-0.2,0.8-0.4
				C-209.5,415.6-209.5,414.7-210.1,414.4z"/>
			<path class="st0" d="M-212.3,411.3c-0.1,0.1-0.1,0.3,0,0.3c0.1,0,0.1-0.1,0.2-0.1c0.1-0.1,0.1-0.2,0-0.2
				C-212.1,411.3-212.2,411.3-212.3,411.3z"/>
			<path class="st0" d="M-211.8,418.5c-0.1,0.1,0,0.3,0.1,0.3c0-0.1,0.2-0.2,0-0.3C-211.7,418.4-211.7,418.5-211.8,418.5z"/>
			<path class="st0" d="M-208.5,402c-0.1,0-0.1,0-0.2,0.1c0,0.1,0,0.2,0,0.3c-0.2,0.6-1,1.2-0.6,1.9h0.1c0.2-0.1,0.3-0.3,0.4-0.5
				c0.2-0.4,0.4-0.9,0.5-1.4C-208.3,402.2-208.3,402-208.5,402z"/>
			<path class="st0" d="M-209.7,404.5c-0.1,0.1,0.1,0.1,0.1,0.1c0.1,0,0.1-0.2,0.1-0.2C-209.6,404.4-209.7,404.4-209.7,404.5z"/>
			<path class="st0" d="M-216.9,400.1c-0.1-0.3-0.3,0-0.5,0c-0.1,0-0.1-0.1-0.1-0.1c-0.1,0-0.1,0-0.2,0.1c-0.1,0.1,0,0.2,0.1,0.2
				c0.1,0,0.1-0.1,0.2,0c0.1,0.1,0,0.4,0.2,0.3c0.1,0,0.2-0.1,0.4-0.1c0.1,0,0.2-0.2,0.1-0.3c0.2,0,0.3-0.1,0.4,0
				c0,0,0.1,0.1,0.1,0.2s0.2,0.1,0.3,0.1c0.1,0,0.3,0,0.4-0.1s0.1-0.3,0-0.4c-0.1,0-0.2,0-0.2,0c-0.1-0.1-0.2-0.2-0.3-0.2
				C-216.4,399.5-216.7,399.9-216.9,400.1z"/>
			<path class="st0" d="M-215.7,400.4h-0.1l0,0H-215.7z"/>
			<path class="st0" d="M-218.3,400.3c0.1,0,0.3,0,0.4,0l0,0c0-0.2-0.2-0.2-0.4-0.1l0,0h-0.1C-218.5,400.3-218.4,400.3-218.3,400.3z
				"/>
			<path class="st0" d="M-217.8,401.3c0.2-0.2,0.4-0.3,0.6-0.4c0,0,0,0,0-0.1c0,0,0,0,0,0.1c0-0.1-0.1-0.2-0.2-0.2
				c0,0.1-0.1,0.2-0.2,0.2c-0.1,0.1-0.3,0.2-0.3,0.3c0,0.1-0.1,0.3,0,0.3C-217.9,401.4-217.8,401.3-217.8,401.3z"/>
			<path class="st0" d="M-220,399.9c0,0.1,0,0.1,0.1,0.2c0.1,0,0.1-0.1,0.1-0.2C-219.9,399.8-220,399.8-220,399.9z"/>
			<path class="st0" d="M-225,396.7c0.2,0.1,0.4,0.1,0.5,0.1c0,0,0.1-0.1,0.1-0.2c-0.1-0.1-0.2,0-0.3-0.1h-0.1
				C-225,396.4-225,396.5-225,396.7C-225.1,396.6-225,396.7-225,396.7z"/>
			<path class="st0" d="M-212.1,399c-0.1,0.1-0.2,0-0.3,0.1c-0.1,0-0.1,0.1,0,0.2c0.1,0.2,0.2,0.1,0.4,0c0,0.1,0,0,0.1,0.1
				c0.1,0,0.1-0.1,0.2-0.1v0.1c-0.3,0.1-0.3,0.2-0.3,0.2c-0.1,0-0.2,0-0.2-0.1h-0.1l0,0c0,0.1,0,0.2,0,0.2c-0.2,0.2-0.6,0.3-0.4,0.5
				c0.1,0.2,0.4,0.1,0.7,0.1c0,0,0.1,0,0-0.1c0-0.2,0.1-0.3,0.2-0.4c0.1,0,0-0.1-0.1-0.2c-0.1,0,0-0.2,0.1-0.2
				c0.1,0,0.1-0.1,0.2-0.1c0-0.1,0-0.1,0-0.1c0.1,0,0.3-0.1,0.2-0.2c0-0.2-0.2-0.3-0.1-0.5c0-0.1,0.1-0.1,0.2-0.2c0,0,0.1-0.1,0-0.1
				c0,0,0,0-0.1,0c0,0.1-0.1,0-0.1,0.1c-0.1,0-0.3,0-0.4,0.1C-212.1,398.7-212.1,398.9-212.1,399z"/>
			<path class="st0" d="M-213.6,400.4c0,0.2,0.2,0.1,0.3,0c-0.1,0,0-0.1-0.1-0.1C-213.5,400.4-213.6,400.4-213.6,400.4z"/>
			<path class="st0" d="M-211.5,400.1c-0.1,0.1,0.2,0.1,0.3,0.1l0,0c0,0,0,0,0-0.1C-211.4,400-211.5,400.1-211.5,400.1z"/>
			<path class="st0" d="M-211.1,399.4L-211.1,399.4c0,0,0,0.2,0.1,0.1C-211.1,399.5-211.1,399.5-211.1,399.4L-211.1,399.4z"/>
			<path class="st0" d="M-214.2,393.7c0.1,0.1,0.2,0.2,0.3,0.3c0.1,0.2,0,0.3,0.1,0.5c0,0.1,0.1,0.1,0.1,0.1c0.1,0.1,0,0.2,0,0.3
				c0.1,0.2,0.1,0.4,0.1,0.6c0.1,0,0.1,0.1,0.2,0.1c0,0.1,0.1,0.2,0.1,0.3s0.2,0.1,0.3,0.2c0.1,0.2,0.3,0.4,0.5,0.5
				c0.1,0,0.2,0,0.2,0.1v0.1c0.3,0,0.6,0.2,0.5,0.5c0.1-0.1,0.2-0.1,0.3-0.2c0.1-0.2,0.1-0.4,0-0.6c-0.1-0.1-0.2-0.2-0.2-0.3
				c0-0.1,0-0.2,0-0.2c0-0.1-0.2-0.1-0.2-0.1c-0.1-0.1-0.1-0.4,0.2-0.4c0,0,0,0,0-0.1c-0.1,0-0.2,0-0.3,0c-0.1,0-0.1-0.1-0.1-0.1
				c0-0.1,0-0.3-0.1-0.4c-0.1-0.1-0.3-0.1-0.4-0.2s-0.2-0.1-0.3-0.2c-0.1,0-0.2,0.1-0.2,0c-0.2-0.3-0.4-0.5-0.6-0.8
				c-0.1-0.1-0.2-0.1-0.4-0.1L-214.2,393.7c0.1,0,0.1,0,0.2,0C-214.2,393.6-214.3,393.7-214.2,393.7z"/>
			<path class="st0" d="M-215.6,394.2c-0.1,0.1-0.1,0.3,0,0.3c0.1,0.1,0.3,0,0.5,0c0.1,0,0.2-0.1,0.2-0.2c0.1-0.1,0.3-0.1,0.5-0.1
				c0,0.1,0.1,0.1,0.1,0.1c0-0.1,0-0.3-0.1-0.3c-0.2-0.1-0.2-0.2-0.3-0.4c0-0.1-0.1,0-0.1,0.1c0,0.3-0.2,0.2-0.4,0.3v0.1
				c0,0,0,0-0.1,0c0,0-0.1,0,0-0.1c-0.1,0-0.2,0-0.2,0.1C-215.4,394.1-215.5,394.1-215.6,394.2z"/>
			<path class="st0" d="M-218.9,388.6c-0.2-0.3-0.4-0.6-0.3-0.9c0.4,0.2,0.8,0.1,1.3-0.1c0.3-0.1,0.7,0.1,1-0.1c0,0,0-0.1,0-0.2
				c-0.4,0.2-0.7-0.3-1-0.1c-0.4,0.3-0.9,0.3-1.3,0.4c-0.3,0.1-1.2,0-1.3,0.5c0.5,0,1,0,1.3,0.5C-219.2,388.7-219,388.6-218.9,388.6
				z"/>
			<path class="st0" d="M-217.4,390.7c0.1,0.2,0.4,0.3,0.6,0.4c0-0.1,0-0.2-0.1-0.2C-217.1,390.7-217.3,390.7-217.4,390.7z"/>
			<path class="st0" d="M-217.8,391.4c-0.1,0,0,0.2,0.1,0.2C-217.7,391.6-217.6,391.4-217.8,391.4z"/>
			<path class="st0" d="M-218.1,391C-218.1,391-218,391-218.1,391C-218,391-218,391-218.1,391c0.1-0.2-0.1-0.2-0.2-0.3v0.1
				C-218.2,390.9-218.2,391-218.1,391z"/>
			<path class="st0" d="M-216.8,392.6C-216.8,392.7-216.8,392.7-216.8,392.6c0.1,0,0.1-0.1,0.1-0.1l0,0c0,0,0-0.1,0-0.2h-0.1
				C-216.9,392.5-216.8,392.5-216.8,392.6z"/>
			<path class="st0" d="M-216.4,392.7c0,0.1,0,0.1,0,0.2h0.1C-216.3,392.8-216.3,392.7-216.4,392.7
				C-216.3,392.6-216.4,392.7-216.4,392.7z"/>
			<path class="st0" d="M-216.6,393c0,0.1,0.1,0,0.1-0.1l0,0l0,0l0,0l0,0c-0.1-0.1-0.2-0.1-0.2-0.1
				C-216.8,392.9-216.6,392.9-216.6,393z"/>
			<path class="st0" d="M-216.4,393C-216.3,393.1-216.5,393.1-216.4,393c0.1,0.2,0.2,0.2,0.3,0.2c0.1,0,0.1-0.1,0.1-0.2
				C-216.1,393-216.2,393-216.4,393C-216.3,393-216.4,393-216.4,393z"/>
			<path class="st0" d="M-215.7,393.3c0.1,0,0-0.1,0-0.1c0-0.1-0.1-0.2-0.1-0.1c-0.1,0-0.1,0.2,0,0.2
				C-215.8,393.3-215.8,393.4-215.7,393.3z"/>
			<path class="st0" d="M-215.5,393.7c0,0,0.1,0,0.1-0.1v-0.1l0,0v-0.1c0,0-0.1,0.1-0.1,0l0,0c0,0-0.1-0.1-0.1,0
				c-0.1,0-0.1,0.1,0,0.2C-215.6,393.6-215.6,393.7-215.5,393.7z"/>
			<path class="st0" d="M-215.9,394C-215.9,394-215.8,394-215.9,394c0.1-0.1,0.1-0.2,0.1-0.2s0,0-0.1,0c0,0,0,0.1-0.1,0.1
				C-216,394-216,394-215.9,394z"/>
			<path class="st0" d="M-216.3,387L-216.3,387L-216.3,387c-0.1-0.1-0.2-0.1-0.2-0.1C-216.5,387-216.4,387.1-216.3,387z"/>
			<path class="st0" d="M-211.5,390.5c0.1,0.1,0.2,0,0.3,0.1c0.1,0.1,0.1,0.2,0.3,0.2c0.1,0,0.2,0,0.2-0.1c0-0.2-0.1-0.5-0.3-0.6
				c-0.2-0.1-0.4-0.1-0.7-0.1c-0.1,0-0.1,0.2-0.1,0.2C-211.7,390.3-211.6,390.4-211.5,390.5z"/>
			<path class="st0" d="M-205.7,397.8c-0.2-0.2-0.2-0.4-0.3-0.6c-0.1-0.1-0.3-0.2-0.4-0.3c-0.1-0.1,0-0.2,0-0.3
				c-0.1,0-0.1-0.1-0.1-0.1c-0.1-0.2-0.2-0.3-0.3-0.4c0.1-0.2-0.2-0.3-0.4-0.4v-0.1c0-0.1-0.1-0.1-0.2-0.1h-0.1
				c-0.1-0.1-0.3-0.3-0.3-0.4c-0.1-0.2-0.3-0.3-0.4-0.4c-0.1,0-0.1-0.2-0.2-0.2c-0.1,0-0.3,0-0.3-0.1c0-0.3-0.2-0.4-0.4-0.6
				c-0.3-0.2,0-0.6-0.1-0.9c0-0.1-0.2-0.1-0.3-0.1c0,0-0.1,0-0.1-0.1c-0.1-0.2,0-0.4-0.2-0.6c-0.2-0.3-0.4-0.5-0.6-0.8
				c-0.1-0.1-0.3-0.1-0.5-0.1c0,0-0.1,0-0.1-0.1c-0.1,0-0.1-0.1-0.1-0.2c-0.1-0.2-0.3-0.2-0.4-0.3c-0.3-0.1-0.6-0.1-0.9-0.1
				c-0.2,0-0.5,0.1-0.7,0.2c-0.2,0.2-0.5,0.2-0.7,0.3c-0.1,0,0,0.2,0,0.2c-0.1,0.1-0.2,0.2-0.1,0.3c0,0-0.1,0,0,0
				c0.1,0.1,0.2,0,0.2,0c0.1,0,0.1,0.1,0.2,0.2c0.1,0.1,0.3,0.2,0.3,0.4c0,0.1-0.1,0.2,0,0.2c0.2,0.2,0.1,0.3,0.1,0.5
				c0,0.1,0.2,0,0.2,0c0.2,0.1,0.3,0.4,0.2,0.6c0,0.1,0,0.3,0,0.4c0.1,0.2,0.1,0.5,0.3,0.7c0-0.1,0.1-0.2,0.1-0.2
				c0.2,0,0.2-0.1,0.3-0.2c0.3-0.2,0.6,0.2,0.7,0.5c0.1,0.3,0,0.6,0.1,0.8c0.1,0.2,0.2,0.4,0.5,0.6c0.1,0,0.1,0.2,0.1,0.3
				s0.1,0.1,0.2,0.1c0.1,0,0-0.2,0.1-0.2s0.2,0,0.2,0.1c0.2,0.3,0.3,0.8,0.7,0.8c0,0.1,0,0.1,0.1,0.1s0.2-0.1,0.2,0
				c0.1,0.1,0.1,0.2,0.2,0.3c0.2,0,0.3,0,0.5,0c0.1,0,0.2,0.1,0.2,0.2s0.1,0.1,0.2,0.2c0.3,0.3,0.4,0.7,0.8,0.9
				c0.1,0.1,0.2,0.2,0.4,0.2c0,0,0-0.1,0.1-0.1c0.1,0,0.2-0.1,0.3-0.2c0.1-0.1,0.3-0.3,0.5-0.4v-0.1c0.1-0.1,0.3-0.1,0.4-0.3
				C-205.6,398.1-205.6,397.9-205.7,397.8z"/>
			<path class="st0" d="M-211.4,397.2C-211.3,397.2-211.3,397.2-211.4,397.2c0.1,0,0.1,0,0.2,0H-211.4z"/>
			<path class="st0" d="M-211.6,397.9c0.1,0.1,0.2,0.1,0.3,0.2c0.1,0.1,0.2,0.2,0.2,0.3c0.2,0.1,0.1-0.2,0.2-0.3c0,0,0.1,0,0.2,0
				c0.1-0.2,0-0.4-0.2-0.5c-0.1-0.1-0.2-0.3-0.4-0.3c-0.1,0-0.2,0-0.2,0.1c-0.1,0.1,0,0.3-0.1,0.4
				C-211.6,397.8-211.7,397.9-211.6,397.9z"/>
			<path class="st0" d="M-210.5,398.6c-0.1,0.3,0,0.5-0.1,0.8c0,0.1-0.2,0.1-0.3,0.2c-0.1,0.1-0.1,0.2-0.1,0.3
				c0,0.2,0.2,0.2,0.4,0.2c0.3,0.2,0.7,0.4,0.9,0.8c0.1,0.1,0.1,0.3,0.2,0.4s0.3,0.1,0.3,0.3c0,0.1,0.1,0.1,0.2,0.1
				c0.2-0.1,0.2-0.4,0-0.6c-0.1-0.1-0.2-0.2-0.2-0.3c0-0.4-0.1-0.7-0.3-1.1c-0.1-0.2-0.4-0.3-0.5-0.4c0,0-0.1-0.1,0-0.1
				c0-0.1,0.1-0.2,0.2-0.3c0-0.2-0.2-0.3-0.3-0.5h-0.1h0.1C-210.3,398.4-210.5,398.4-210.5,398.6z"/>
			<path class="st0" d="M-208.5,400.5c0-0.1,0-0.2,0-0.4c0-0.2-0.2-0.2-0.4-0.2c-0.1,0-0.2,0-0.2,0.1s0,0.2,0,0.3
				c0.3,0.4,0.3,0.9,0.4,1.3c0,0.2,0.4,0,0.4-0.2c0-0.1,0-0.2,0-0.3c0-0.1-0.1-0.2-0.2-0.3C-208.4,400.7-208.5,400.6-208.5,400.5z"
				/>
			<path class="st0" d="M-209,399.3c-0.1,0.1,0.1,0.2,0,0.4c0,0,0,0,0.1,0c0.1,0,0.1-0.1,0.1-0.1C-209,399.6-209,399.4-209,399.3
				L-209,399.3z"/>
			<path class="st0" d="M-209.1,398.9c0-0.1,0-0.2-0.1-0.2c0,0.1-0.2,0.1-0.2,0.2c-0.1,0.1,0,0.2,0.1,0.2l0,0
				C-209.1,399.3-209,399.1-209.1,398.9C-209,398.9-209.1,398.9-209.1,398.9z"/>
			<path class="st0" d="M-209.8,398.2c0.2,0.1,0,0.3,0.1,0.4c0.1,0.1,0.3,0.1,0.4,0c0.1-0.1,0-0.2-0.1-0.2c-0.1,0-0.1-0.1,0-0.2
				h-0.1c-0.1-0.1,0.1-0.2,0-0.3v-0.1c-0.1,0-0.1,0-0.1,0.1s0,0.1,0,0.2C-209.7,398.1-209.9,398.2-209.8,398.2z"/>
			<path class="st0" d="M-209.9,397.4c-0.1,0-0.2,0-0.3-0.1h-0.1l0,0c0,0.1-0.1,0.1,0,0.2c0.1,0.1,0.1,0.1,0.1,0.2
				c0,0.1,0.2,0,0.2,0.1s0.1,0.1,0.2,0.1c0.1,0,0-0.1,0-0.2c0,0,0-0.1-0.1,0C-209.9,397.5-209.8,397.4-209.9,397.4z"/>
			<path class="st0" d="M-219.9,403.9L-219.9,403.9c0.1,0,0.1-0.1,0.1-0.1s0-0.1-0.1-0.1c0-0.1-0.1,0-0.1,0.1l0,0
				C-219.9,403.8-219.9,403.8-219.9,403.9z"/>
			<path class="st0" d="M-208.9,402.1c-0.2-0.1-0.4,0-0.5,0.1c-0.3,0.2-0.4,0.6-0.6,0.9c-0.1,0.2-0.3,0.2-0.5,0.2c0,0-0.1,0-0.1-0.1
				c0-0.1,0-0.2,0-0.3c0.1-0.1,0.1-0.1,0.2-0.2c0.1-0.2,0-0.3,0-0.5c-0.1-0.3-0.4-0.5-0.7-0.4c-0.3,0.1-0.5,0.4-0.6,0.6h-0.1
				c-0.1-0.1-0.3-0.2-0.3-0.4c0,0,0,0,0-0.1c0.1,0.1,0.2,0.2,0.4,0.2c0.1-0.1,0-0.2-0.1-0.3c-0.1,0-0.2-0.1-0.3-0.1
				s-0.2-0.1-0.2-0.2c0-0.2-0.1-0.4-0.2-0.4c-0.2-0.1-0.3-0.1-0.4-0.2c-0.1,0-0.2,0-0.2,0v-0.2c0.2,0,0.4,0,0.3-0.2
				c0-0.1-0.1-0.2-0.3-0.1c0,0-0.1,0-0.1,0.1c0,0,0,0.1-0.1,0.1c0,0.1,0.1,0.2,0,0.3c-0.1,0.1-0.3,0.1-0.4,0.2h-0.1
				c-0.1,0-0.3-0.2-0.4-0.1c-0.1,0.1-0.1,0.2-0.2,0.3c-0.1,0-0.2,0.1-0.3,0.1c-0.2,0.1-0.1,0.3,0,0.4c0,0.1,0,0.1,0,0.2
				c-0.1,0.1-0.1-0.1-0.2-0.1c0-0.2-0.1-0.3-0.1-0.5s0.2-0.3,0.2-0.4s0.1-0.2,0-0.3c-0.1-0.1-0.2-0.2-0.3-0.1
				c-0.3,0.1-0.4,0.6-0.7,0.5c-0.2-0.1-0.3-0.2-0.5-0.3c-0.1-0.1-0.2-0.1-0.3,0c-0.2,0.2-0.5,0.3-0.7,0.4c-0.2,0.1-0.4,0.3-0.5,0.5
				c-0.1,0.3-0.6,0.4-0.8,0.1c-0.1-0.2-0.2-0.3-0.4-0.3c-0.2,0-0.2,0.2-0.4,0.3c-0.1,0-0.2,0-0.3-0.1v-0.1c0.2-0.2,0.5-0.4,0.8-0.5
				c0.1,0,0.2-0.2,0.1-0.4v-0.1c0-0.1,0-0.2-0.1-0.2c-0.4,0-0.7,0.3-0.9,0.6c0,0,0,0.1-0.1,0.1c-0.2,0-0.5,0.1-0.7,0l-0.1-0.3
				c-0.1,0.1-0.2,0.2-0.2,0.3c0,0.1-0.1,0.1-0.1,0.1c-0.1,0.2,0.1,0.4,0.1,0.6c0,0.1-0.3,0.1-0.4,0.1c-0.1,0-0.1,0.1-0.1,0.2
				c0,0.1,0.1,0.1,0.1,0.1c0.1,0.1,0.1,0.4,0.3,0.4c0.2,0.1,0.5,0,0.7,0.1c0.2,0,0.3,0.2,0.4,0.3c0,0.1,0.2,0.1,0.2,0.3l0.1,0.1
				c0.1,0,0.2-0.1,0.2,0c0.1,0,0.1,0.2,0.1,0.3c0.1,0.2,0,0.4,0.1,0.5c0.1,0.1-0.1,0.2-0.1,0.3c0,0-0.1,0-0.2,0.1
				c0,0.1,0,0.3,0.1,0.4c0.1,0.1,0.1,0,0.2,0c0.1,0.2,0.2,0.3,0.3,0.5c0,0.1,0.1,0.1,0.2,0.2c-0.1,0-0.1,0.1-0.1,0.1
				c0,0.1,0.2,0.1,0.2,0c0.1-0.1,0.2-0.1,0.3-0.2c0.1-0.1,0.1,0,0.2-0.1c0.1,0.1,0.1,0.2,0.1,0.2c-0.1,0.1-0.4,0-0.5,0.1
				c-0.1,0-0.2,0-0.3,0.1c-0.1,0.1,0,0.2,0.1,0.2c0.3,0.1,0.1,0.5-0.1,0.8c0,0.1,0,0.1,0,0.2l-0.1,0.1c-0.3,0-0.6-0.1-0.9,0
				c-0.1,0-0.1,0.2-0.2,0.3c0,0,0,0,0.1,0c-0.1,0-0.1,0.1-0.1,0.1c0,0.1,0,0.2,0,0.2c-0.3,0.3-0.3,0.7-0.4,1.1
				c0,0.1,0.1,0.2,0.2,0.2c0.1,0,0.2-0.1,0.3-0.1c0.1,0,0.1,0.2,0.2,0.3c0.1,0.1,0.3,0.1,0.3,0s0-0.3,0.1-0.4c0-0.2-0.1-0.3-0.1-0.4
				c0-0.1,0-0.3,0.1-0.3c0.1-0.1,0.1,0,0.2,0.1c0,0.1,0,0.2,0.1,0.3c0,0.1,0,0.2,0,0.3c0.1,0.1,0.1,0.2,0.1,0.2l-0.1,0.1
				c0,0.1,0,0.3-0.1,0.3c-0.1,0.1-0.1,0.2-0.2,0.2c-0.3,0-0.6-0.1-0.5-0.4c-0.1,0-0.2,0-0.3,0.1c-0.1,0.1,0,0.3-0.1,0.4
				c-0.1,0.1-0.2,0.2-0.3,0.4c0,0,0,0,0,0.1c-0.1,0.2-0.3,0.2-0.5,0.3l0,0c-0.1,0.1-0.3,0-0.3,0.1c-0.1,0.1,0.1,0.2,0.2,0.4
				c0,0.1,0,0.2-0.1,0.2c-0.2,0-0.3,0-0.5,0c0,0.1,0,0,0,0.1c0,0.2,0,0.3-0.1,0.4c-0.1,0.1,0,0.2,0.1,0.3c0.1,0.1,0.1,0.3,0.2,0.3
				c0.1,0,0.1,0.1,0.2,0.1c0.2,0,0.3-0.1,0.3-0.3c0-0.1,0.2,0,0.3,0h0.1c0.1-0.1,0-0.2,0-0.3c0.2-0.2,0.4-0.4,0.6-0.5
				c0.1-0.1,0.2-0.1,0.3-0.1s0.2,0.1,0.3,0.1c0.1,0,0.2,0.1,0.2,0.2c0,0,0.1,0,0.1,0.1c0.1,0.1,0.2,0.2,0.4,0.3c0,0,0-0.1,0.1,0
				c0-0.1,0-0.3-0.1-0.4s-0.3-0.2-0.4-0.3c0,0,0-0.1,0-0.2h0.1c0.1,0.1,0.2,0.1,0.3,0.1c0.2,0.1,0.1,0.3,0.3,0.4
				c0.1,0,0.1,0.2,0.3,0.2c0.1,0,0.3,0,0.4-0.2c0.1-0.1-0.1-0.1-0.1-0.2c-0.1-0.1,0.1-0.1,0.1-0.2c0.1-0.1,0-0.3,0-0.4
				c0-0.1,0-0.1,0.1-0.1l0,0c0.1-0.2,0-0.3,0.1-0.5h0.1c0,0.1,0.1,0.1,0.2,0.1c0.1,0,0.2-0.1,0.3-0.2c0.1-0.1,0.4-0.1,0.4,0.1
				c0,0.1,0,0.3-0.1,0.3c-0.3,0-0.5,0.1-0.7,0.3c0,0-0.1,0-0.1,0.1c-0.1,0.1-0.2,0.2-0.1,0.3c0,0.1-0.1,0.1-0.1,0.2
				c0.1,0,0.1,0.2,0.2,0.2c0.2,0,0.3,0,0.5-0.1c0,0,0.1-0.1,0-0.2c0.1,0,0.2-0.1,0.3-0.2c0.3,0,0.4,0.2,0.3,0.5c0,0-0.1,0-0.1,0.1
				c-0.1,0.2-0.2,0.4-0.4,0.5c-0.3,0.2-0.7,0.1-1,0.3c-0.1,0.1-0.1,0.3-0.3,0.3c-0.1,0-0.3,0.1-0.5,0l0,0c0,0.1-0.3,0-0.5,0
				c-0.1,0,0-0.2-0.1-0.2s-0.2,0-0.2,0v-0.1c-0.4-0.1-0.7,0-1.1,0c-0.1,0-0.1,0.1-0.2,0.2c-0.1,0-0.1,0.1-0.2,0.1
				c-0.1,0.1-0.3,0.2-0.5,0.1c-0.2,0-0.3,0.1-0.4,0.1c-0.2,0-0.4,0.2-0.6,0.4c-0.1,0.1-0.3,0.1-0.5,0.1c0,0,0,0.1-0.1,0.1
				c-0.3,0.1-0.5,0.4-0.6,0.7c0,0.1,0,0.2,0,0.2c-0.1,0.2-0.2,0.4-0.4,0.6v0.1c0.2,0.3,0.4,0.5,0.7,0.8c0,0.1,0.2,0.1,0.2,0.2
				c0.1,0.2,0.2,0.3,0.3,0.5c0.1,0.2,0.5,0.3,0.8,0.2c0.1,0,0.2,0.1,0.3,0.1c0.3,0,0.7,0.1,1-0.1c0.5,0.1,1-0.1,1.4,0.1
				c0.1,0,0.1,0.2,0.1,0.3c0.1,0.2,0.2,0.4,0.4,0.5c0.2,0.1,0.4,0.2,0.6,0.2c0.1,0,0.1,0.1,0.1,0.2c0.1,0.1,0,0.2,0.1,0.3
				c0.1,0.1,0.2,0.2,0.2,0.3c0,0.2-0.2,0.3-0.1,0.5c0,0.1,0,0.2,0,0.2c0.3,0.3,0.5,0.5,0.8,0.8l0.1,0.1c0.1,0,0.1,0.2,0.2,0.2
				c0.1,0.1,0,0.2,0.1,0.3c0.1,0.1,0.2,0.3,0.4,0.4c0.2,0.2,0.4,0.1,0.6,0.2c0,0,0.1,0.1,0.2,0.1c0.2,0.1,0.4,0.1,0.6,0
				c0.1-0.1,0.2-0.2,0.3-0.3c0.1-0.1,0.4-0.1,0.6-0.1c0,0,0.1,0,0.1-0.1c0-0.1,0.1-0.2,0.1-0.3c0.1,0,0.3-0.1,0.4-0.1
				c0.2-0.1,0.4-0.4,0.6-0.6c0.2-0.2,0.6-0.1,0.7-0.4c0.1-0.2,0-0.5,0.1-0.8c0.1-0.1,0.1-0.3,0.2-0.4c0-0.2,0-0.5,0-0.7
				c0-0.1-0.2-0.3-0.1-0.4c0-0.1,0.2-0.1,0.2-0.2c0.1-0.2,0.2-0.4,0.3-0.6l0.1-0.1c0.1-0.1,0-0.2,0-0.2c-0.1,0-0.1-0.1-0.1-0.1
				c-0.2-0.3-0.4-0.6-0.7-0.7c-0.1,0-0.1-0.1-0.1-0.2v-0.1c-0.1,0-0.1-0.1-0.1-0.2h0.1l0,0l0,0c0.1-0.2,0.2-0.4,0.3-0.5
				c0,0,0.2,0,0.2-0.1c0-0.2,0-0.3,0-0.5c-0.1-0.2,0-0.4,0-0.6c0-0.4,0-0.7-0.2-1.1c0-0.1-0.1-0.2-0.3-0.2c-0.1,0-0.1,0.1-0.1,0.2
				s-0.1,0.1-0.1,0.2c-0.1,0.1-0.2,0.2-0.3,0.3c0,0.1,0,0.2-0.1,0.2c-0.1,0.1-0.1,0.2-0.2,0.2s-0.3,0.1-0.4,0.1c-0.1,0-0.3,0-0.5,0
				c-0.8-0.2-1.5-0.5-2.3-0.8v-0.1c0.1-0.1,0.3,0,0.4,0c0.1,0,0-0.1,0-0.1c0.2,0,0.3,0.2,0.5,0.2c0.3,0.1,0.7,0.1,1,0.2
				c0.3,0.1,0.5,0.3,0.7,0.3c0.2,0.1,0.4-0.1,0.5-0.2v-0.1c0.1-0.1,0.2-0.2,0.3-0.4c0-0.1,0-0.2,0-0.4c0-0.1,0.1-0.1,0.1-0.2
				c0-0.2,0-0.4,0-0.5c0.1,0,0.2-0.1,0.1-0.1v-0.1c0-0.1,0-0.2,0-0.3c0.1-0.3,0-0.5-0.1-0.7c-0.1-0.1-0.2-0.1-0.3-0.1l-0.1,0.1
				c-0.1,0-0.2,0.1-0.3,0.1c-0.1,0.1-0.1,0.3-0.2,0.3c-0.2,0.1-0.3,0.3-0.5,0.3c-0.1,0.1-0.3,0-0.3-0.1c-0.1-0.3,0.3-0.3,0.5-0.3
				l0.1-0.1c0.1-0.1,0.1-0.3,0.2-0.3c0.1,0,0.2,0,0.3,0c0.1,0,0.1-0.1,0.2-0.1c0.1,0,0.1-0.2,0.1-0.2c0-0.1,0.2-0.2,0.3-0.3
				c0.1-0.3,0.1-0.6,0.3-0.8c0.1-0.1,0.1,0.2,0.1,0.2c0.1,0.1,0.3,0.1,0.4,0c0.1-0.1,0-0.3,0.1-0.3s0.1,0,0.2,0
				c0.1,0.1,0.2,0.2,0.3,0.1c0.1,0,0.1-0.1,0.2-0.2c0.1,0,0.2,0,0.4-0.1c0.3-0.1,0.9,0.1,0.9-0.2c-0.1-0.5-0.4-0.8-0.8-1
				c-0.3-0.2-0.2-0.6-0.5-0.9c-0.1-0.1,0-0.2-0.1-0.2l-0.1-0.1l-0.1-0.1c0-0.2-0.1-0.5,0.1-0.7c0.1-0.1,0.2-0.1,0.3-0.2
				c0.1-0.1,0.3-0.1,0.3-0.3s0-0.4,0-0.6c0-0.1,0.1-0.1,0.2-0.1c0.3,0,0.7,0.1,1-0.1c0.1-0.1,0.1-0.2,0.1-0.2
				c0.2-0.4,0.6-0.6,0.6-1.1c0-0.1,0.1-0.1,0.2-0.2C-208.8,402.2-208.8,402.1-208.9,402.1z M-215.3,409.7
				C-215.3,409.7-215.3,409.8-215.3,409.7c-0.1,0.1-0.2,0.1-0.2,0c0-0.1-0.1-0.2-0.2-0.2c-0.1,0-0.2,0-0.2,0.1c-0.1-0.1-0.2,0-0.3,0
				c0-0.1-0.1-0.1-0.2-0.2c-0.1-0.1-0.1-0.2,0.1-0.3c0.1,0,0.2,0,0.2,0.1l0,0v0.1c0.1,0.1,0.2,0,0.3,0c0.1,0.1,0.3,0,0.4,0v0.1
				C-215.2,409.4-215.2,409.6-215.3,409.7C-215.2,409.7-215.3,409.7-215.3,409.7z"/>
			<g>
				<path class="st0" d="M-228.4,434.3c1.8-2.7,7.3-5.6,12.7-5.6c5.4,0,11.3,3.1,13.6,1.5c0,0-2.4,2-7.1,2c-4.8,0-6.6-2.4-9.9-2.4
					c-3.3,0-6.8,2.7-8.3,5L-228.4,434.3z"/>
				<path class="st0" d="M-211.3,428.4c0,0,1.6-0.9,2.4-2.7c0.8-1.7,3-4.5,5.2-6.2c0,0-2.5,7.8-5,8.1c0,0-0.4,0.2,0.3,0.1
					c0.7-0.1,4-1.3,5.1-1.5c1.1-0.2,3.9-0.8,4.7-1.6c0.6-0.6,1.1-0.5,1.1-0.5s-3.1,5.2-8.7,5.2C-206.3,429.3-209,429-211.3,428.4z"
					/>
				<path class="st0" d="M-204.7,425.7c0,0,0.6-0.9,0.7-2.5c0.1-1.5,1.1-5.1,3.8-9c0,0,0.4,6.1-2.7,9.9c0,0-0.2,0.5,0.2,0.1
					c0.4-0.4,2.3-2.7,6.5-5.5c0,0,2.2-1.8,2.3-2.4C-193.9,416.4-195.6,425.1-204.7,425.7z"/>
				<path class="st0" d="M-199.4,419.9c0,0,0.2-1,0.2-1.8c0-0.8-0.4-3.7-0.4-5c0-1.3,0.1-3.6,1.1-5.2c0,0,0,1.4,0.3,2
					c0.3,0.6,0.7,3.2,0.7,3.5s-0.1,2.5-0.6,3.6c0,0,0.4-0.2,0.8-1.1c0.4-0.8,1.5-2.4,3.1-4c1.6-1.6,2-3.1,2-3.1s0.4,2.8-1.7,5.8
					c-2.1,3-3,2.5-4.1,3.7C-197.9,418.4-199.3,419.9-199.4,419.9z"/>
				<path class="st0" d="M-196.1,413c0,0-0.1-1.7-0.4-2.3c-0.3-0.6-2.2-4-1.8-8.4c0,0,0.3-0.3,0.9,1.4c0.6,1.7,1.4,2.2,1.7,3.9
					c0.3,1.7,0.3,2.4,0.3,2.4s0.2,0.2,0.2,0s0.2-2.5,1.2-4.6c0.9-2.1,2.2-4.1,2.1-5.5c0,0,0.6,0,0.5,2.3
					C-191.6,404.6-192.2,408.6-196.1,413z"/>
				<path class="st0" d="M-195.1,406.1c0,0-0.7-1.6-1.2-2.1s-3.8-5.3-4-7.5c0,0,0.3-0.1,0.6,0.4c0.3,0.6,1.9,2.1,2.2,2.4
					c0.3,0.2,1.9,2,2.1,3.9c0,0,0.2,0.2-0.2-3c-0.3-3.2,1-5.2-0.1-7.4c0,0,1.5,0.2,2.4,6.7c0,0,0,2.3-1.2,5.1
					C-194.5,404.6-194.9,406.1-195.1,406.1z"/>
				<path class="st0" d="M-196.3,399c0,0-1.2-1.3-2.2-1.9c-1-0.6-4.1-3.6-4.6-6c0,0,0.2-0.3,1.2,1c0.8,1,1.5,0.5,3.8,3.4
					c0,0,0.3,0.6,0.5,0.6c0.2,0-0.1-0.7-0.1-0.7s-0.4-1.8-0.5-2.4c0-0.6-0.9-4-1.3-4.4c0,0,3,1.7,3.5,6.6
					C-196,395.2-196.1,398.8-196.3,399z"/>
				<path class="st0" d="M-198.9,393.8c0,0,0.2-4.3-5.4-6.4c0,0,2,4,3.4,4.9C-199.4,393.2-198.9,393.8-198.9,393.8z"/>
			</g>
		</g>
		<g>
			<path class="st0" d="M-213.3,434.3c-1.8-2.7-7.3-5.6-12.7-5.6s-11.3,3.1-13.6,1.5c0,0,2.4,2,7.2,2c4.8,0,6.6-2.4,9.9-2.4
				s6.8,2.7,8.3,5L-213.3,434.3z"/>
			<path class="st0" d="M-230.4,428.4c0,0-1.6-0.9-2.4-2.7c-0.8-1.7-3-4.5-5.2-6.2c0,0,2.4,7.8,5,8.1c0,0,0.4,0.2-0.3,0.1
				c-0.7-0.1-4-1.3-5.1-1.5c-1.1-0.2-4-0.8-4.7-1.6c-0.6-0.6-1.1-0.5-1.1-0.5s3.1,5.2,8.7,5.2C-235.4,429.3-232.7,429-230.4,428.4z"
				/>
			<path class="st0" d="M-237,425.7c0,0-0.6-0.9-0.7-2.5c-0.1-1.5-1.1-5.1-3.8-9c0,0-0.4,6.1,2.6,9.9c0,0,0.2,0.5-0.2,0.1
				c-0.4-0.4-2.3-2.7-6.5-5.5c0,0-2.2-1.8-2.3-2.4C-247.8,416.4-246.1,425.1-237,425.7z"/>
			<path class="st0" d="M-242.3,419.9c0,0-0.2-1-0.2-1.8c0-0.8,0.4-3.7,0.4-5c0-1.3-0.1-3.6-1.1-5.2c0,0,0,1.4-0.3,2
				s-0.7,3.2-0.7,3.5s0.1,2.5,0.6,3.6c0,0-0.4-0.2-0.8-1.1c-0.4-0.8-1.5-2.4-3.1-4s-2-3.1-2-3.1s-0.4,2.8,1.7,5.8
				c2.1,3,3,2.5,4.1,3.7C-243.7,418.4-242.4,419.9-242.3,419.9z"/>
			<path class="st0" d="M-245.6,413c0,0,0.1-1.7,0.4-2.3c0.3-0.6,2.2-4,1.8-8.4c0,0-0.3-0.3-0.9,1.4c-0.6,1.7-1.4,2.2-1.7,3.9
				c-0.3,1.7-0.3,2.4-0.3,2.4s-0.2,0.2-0.2,0s-0.2-2.5-1.1-4.6c-0.9-2.1-2.2-4.1-2.1-5.5c0,0-0.6,0-0.5,2.3
				C-250.1,404.6-249.5,408.6-245.6,413z"/>
			<path class="st0" d="M-246.6,406.1c0,0,0.7-1.6,1.2-2.1s3.7-5.3,4-7.5c0,0-0.3-0.1-0.6,0.4c-0.3,0.6-1.9,2.1-2.2,2.4
				c-0.3,0.2-1.9,2-2.1,3.9c0,0-0.1,0.2,0.2-3c0.3-3.2-1-5.2,0.1-7.4c0,0-1.5,0.2-2.4,6.7c0,0,0,2.3,1.2,5.1
				C-247.2,404.6-246.8,406.1-246.6,406.1z"/>
			<path class="st0" d="M-245.4,399c0,0,1.2-1.3,2.2-1.9c1-0.6,4.1-3.6,4.6-6c0,0-0.2-0.3-1.2,1c-0.8,1-1.5,0.5-3.8,3.4
				c0,0-0.3,0.6-0.5,0.6c-0.2,0,0.1-0.7,0.1-0.7s0.4-1.8,0.5-2.4c0-0.6,1-4,1.3-4.4c0,0-3.1,1.7-3.5,6.6
				C-245.7,395.2-245.6,398.8-245.4,399z"/>
			<path class="st0" d="M-242.8,393.8c0,0-0.2-4.3,5.4-6.4c0,0-1.9,4-3.4,4.9C-242.2,393.2-242.8,393.8-242.8,393.8z"/>
		</g>
	</g>
	<g>
		<path class="st0" d="M-252.9,450.9c0-4.6,3.3-8.1,8.1-8.1c4.7,0,8.1,3.5,8.1,8.1s-3.3,8.1-8.1,8.1
			C-249.6,459.1-252.9,455.5-252.9,450.9z M-239,450.9c0-3.4-2.3-6.2-5.8-6.2s-5.8,2.8-5.8,6.2s2.3,6.2,5.8,6.2
			S-239,454.3-239,450.9z"/>
		<path class="st0" d="M-223,446.5c-0.9-1.1-2.3-1.8-3.7-1.8c-3.5,0-5.8,2.8-5.8,6.3c0,3.3,2.2,6,5.8,6c1.8,0,3.1-0.8,4-2.1l1.8,1.3
			c-0.5,0.6-2.3,2.7-5.9,2.7c-4.9,0-8-4.1-8-8c0-4.8,3.3-8.3,8.1-8.3c2,0,4.2,0.8,5.4,2.4L-223,446.5z"/>
		<path class="st0" d="M-218.4,443.2h2.1v6.4h8v-6.4h2.1v15.5h-2.1v-7.1h-8v7.1h-2.1V443.2z"/>
		<path class="st0" d="M-197.3,443.2h1.9l6.6,15.5h-2.5l-1.6-3.8h-7.4l-1.5,3.8h-2.5L-197.3,443.2z M-193.5,453l-2.9-7.1l0,0
			l-2.9,7.1H-193.5z"/>
	</g>
	<g>
		<g>
			<path class="st0" d="M-225.6,405.5c0-2.6,2.1-4.7,4.7-4.7l0,0c2.6,0,4.7,2.1,4.7,4.7l0,0c0,2.6-2.1,4.7-4.7,4.7l0,0v-0.3v-0.3
				c2.3,0,4.1-1.8,4.1-4.1l0,0c0-2.3-1.8-4.1-4.1-4.1l0,0c-2.3,0-4.1,1.8-4.1,4.1l0,0c0,2.3,1.8,4.1,4.1,4.1l0,0v0.3v0.3
				C-223.4,410.2-225.6,408.1-225.6,405.5L-225.6,405.5z"/>
			<path class="st0" d="M-229.3,405.5c0-4.7,3.8-8.5,8.5-8.5l0,0c4.7,0,8.5,3.8,8.5,8.5l0,0c0,4.7-3.8,8.5-8.5,8.5l0,0v-0.4v-0.3
				c4.3,0,7.9-3.5,7.9-7.9l0,0c0-4.3-3.5-7.9-7.9-7.9l0,0c-4.3,0-7.9,3.5-7.9,7.9l0,0c0,4.3,3.5,7.9,7.9,7.9l0,0v0.3v0.3
				C-225.5,413.9-229.3,410.1-229.3,405.5L-229.3,405.5z"/>
			<path class="st0" d="M-233.4,405.5c0-6.9,5.6-12.5,12.5-12.5l0,0c6.9,0,12.5,5.6,12.5,12.5l0,0c0,6.9-5.6,12.5-12.5,12.5l0,0
				v-0.3v-0.3c6.6,0,11.9-5.3,11.9-11.9l0,0c0-6.6-5.4-11.9-11.9-12l0,0c-6.6,0-11.9,5.3-12,12l0,0c0,6.6,5.4,11.9,12,11.9l0,0v0.3
				v0.3C-227.8,418-233.4,412.4-233.4,405.5L-233.4,405.5z"/>
			<path class="st0" d="M-237.3,405.5c0-9.1,7.4-16.5,16.4-16.5l0,0c9.1,0,16.5,7.4,16.5,16.5l0,0c0,9.1-7.4,16.4-16.5,16.4l0,0
				v-0.3v-0.3c8.8,0,15.8-7.1,15.9-15.9l0,0c0-8.7-7.1-15.8-15.8-15.8l0,0c-8.8,0-15.8,7.1-15.9,15.9l0,0c0,8.8,7.1,15.8,15.9,15.9
				l0,0v0.2v0.3C-229.9,421.9-237.3,414.5-237.3,405.5L-237.3,405.5z"/>
			<path class="st0" d="M-241.6,405.5c0-11.5,9.3-20.8,20.8-20.8l0,0c11.5,0,20.8,9.3,20.8,20.8l0,0c0,11.5-9.3,20.8-20.8,20.8l0,0
				V426v-0.4c11.1,0,20.2-9,20.2-20.2l0,0c0-11.1-9-20.2-20.2-20.2l0,0c-11.2,0.1-20.2,9.1-20.2,20.3l0,0c0,11.1,9,20.1,20.2,20.1
				l0,0v0.3v0.3C-232.3,426.2-241.6,416.9-241.6,405.5L-241.6,405.5z"/>
			<g>
				<g>
					<polygon class="st0" points="-221.1,401 -221.1,385 -220.5,385 -220.5,401 					"/>
				</g>
			</g>
			<g>
				<g>
					<polygon class="st0" points="-235.5,391.2 -235.1,390.8 -223.7,402.1 -224.2,402.5 					"/>
				</g>
			</g>
			<g>
				<g>
					<polygon class="st0" points="-241.3,405.8 -241.3,405.2 -225.3,405.2 -225.3,405.8 					"/>
				</g>
			</g>
			<g>
				<g>
					<polygon class="st0" points="-235.5,419.7 -224.2,408.4 -223.7,408.8 -235.1,420.1 					"/>
				</g>
			</g>
			<g>
				<g>
					<polygon class="st0" points="-221.1,425.9 -221.1,409.9 -220.5,409.9 -220.5,425.9 					"/>
				</g>
			</g>
			<g>
				<g>
					<polygon class="st0" points="-217.9,408.8 -217.5,408.4 -206.2,419.7 -206.6,420.1 					"/>
				</g>
			</g>
			<g>
				<g>
					<polygon class="st0" points="-216.4,405.8 -216.4,405.2 -200.4,405.2 -200.4,405.8 					"/>
				</g>
			</g>
			<g>
				<g>
					<polygon class="st0" points="-217.9,402.1 -206.6,390.8 -206.2,391.2 -217.5,402.5 					"/>
				</g>
			</g>
		</g>
		<g>
			<path class="st0" d="M-224,406.8c0.2,0,0.1,0.1,0.2,0.2c0,0,0,0,0.1,0c0.3-0.3,0.4-0.6,0.5-1l0.1-0.1c0-0.2-0.2-0.2-0.3-0.4
				c-0.1,0.3-0.4,0-0.6,0.2v0.1c0.1,0,0.2,0,0.2,0.1s0,0.2,0,0.3h-0.1c-0.1-0.2-0.3-0.2-0.5-0.2c0.1,0.1-0.1,0,0,0.1
				c-0.3-0.1-0.5,0.1-0.8,0.1c-0.1,0-0.2-0.1-0.2-0.1c-0.1,0.1-0.2,0.3-0.3,0.2c0,0-0.1-0.1-0.1-0.2c0.1-0.1,0.3-0.2,0.3-0.3
				c0.1-0.1,0-0.3,0.1-0.4c0.1-0.2,0.2-0.3,0.3-0.3c0.2,0,0.5,0.1,0.6,0c0,0,0.1,0.1,0.2,0.2v0.1c-0.1,0.1-0.2,0.1-0.3,0.3
				c0,0.1,0,0.2,0.1,0.2c0.1,0.1,0.2-0.1,0.2-0.2c0.1-0.1,0.1,0,0.2,0v-0.1c0.1,0,0.3,0,0.5,0c0.2,0,0.1-0.4,0.1-0.6
				c0,0,0-0.1,0-0.2v-0.1c0.1-0.1,0.3-0.2,0.3,0v0.1c0,0.1,0,0.1,0.1,0.1c0,0,0,0,0-0.1s0-0.2,0.1-0.2c0.1-0.1,0.2,0.1,0.3,0.1
				c0.1,0,0.2,0,0.3,0c0.1,0,0.1-0.1,0-0.2h-0.1c-0.1,0.1-0.2,0.1-0.3,0.1s-0.2-0.1-0.2-0.2c-0.1-0.1-0.2,0.1-0.3,0
				c-0.1,0-0.2-0.2-0.1-0.3c0,0,0.1-0.1,0.2-0.1c0.1-0.1,0.3-0.1,0.4-0.2c0.1-0.1,0.1-0.2,0.1-0.3c0-0.1,0.1-0.1,0.1-0.1
				c0.2-0.1,0.3,0,0.5-0.1c0.2-0.1,0.3-0.2,0.4-0.3c0.1,0,0.1-0.1,0.2-0.1l0.1-0.1c0-0.3,0-0.5,0-0.8c0-0.1,0.1-0.1,0.1-0.2h-0.1
				c-0.1,0-0.1-0.2,0-0.2c0.1-0.1,0.2,0,0.3-0.1c0.1-0.1,0-0.4-0.1-0.4c-0.1-0.1-0.3,0.1-0.5,0c0,0.1-0.1,0.1-0.1,0.1
				c-0.2,0.1-0.2-0.2-0.2-0.3l0,0l0.1-0.1h-0.1c-0.2,0.1-0.3,0.3-0.4,0.4v0.1c0,0,0,0.1,0.1,0c0,0.1,0,0.3-0.2,0.3c0,0,0,0,0-0.1
				c0,0-0.2-0.1-0.2,0c0,0.1,0.2,0.2,0.2,0.3c-0.1,0.2-0.3,0.2-0.5,0.3c-0.4,0.2-0.8,0-1.3,0.1c-0.2,0-0.5,0-0.7-0.1
				c-0.2,0-0.2,0.1-0.3,0.2l0,0c0-0.1,0-0.2,0-0.3c0-0.1-0.1-0.1-0.1-0.1c-0.3-0.5-1-0.5-1.5-0.4c-0.1,0-0.1,0.1-0.2,0.2
				c-0.1,0.1-0.3,0-0.4,0.1c-0.1,0-0.1,0.1-0.1,0.1c-0.2,0-0.3-0.1-0.5,0c-0.1,0.1-0.2,0.1-0.3,0.1c0,0,0,0.1,0,0.2h-0.1
				c-0.1,0-0.4,0-0.4,0.2c0,0,0,0,0.1,0c0.1,0.2,0,0.4-0.2,0.4c-0.2,0.1-0.4,0-0.6,0.1c-0.1,0-0.2,0.1-0.2,0.2
				c-0.3,0.5-0.6,1-0.6,1.6c0,0,0,0,0,0.1l0.1,0.1c-0.3,0.6-0.5,0.9-0.8,1.5c-0.1,0.2-0.3,0.8-0.1,1c0.1,0.1-0.1,0.3-0.2,0.4
				c-0.2,0-0.5,0-0.6-0.3c0-0.1-0.2-0.1-0.4-0.1l0,0h-0.1c-0.2,0-0.3,0-0.5,0c-0.3,0.1-0.3,0.4-0.4,0.6c-0.1,0.2-0.4,0.1-0.5,0.3
				c0,0.1,0,0.2,0,0.3c0,0.1-0.1,0.1-0.2,0.2c0,0,0,0.1-0.1,0.2c-0.1,0.2-0.1,0.4-0.1,0.7c0,0.1,0,0.1,0,0.2c0.1,0.2,0,0.5-0.1,0.7
				c-0.2,0.2-0.4,0.2-0.7,0.3c-0.1,0-0.2-0.1-0.4,0c-0.3,0.1-0.6-0.1-0.9,0c0,0-0.1,0-0.1,0.1c-0.4-0.4-0.5-0.6-0.5-0.6
				c-0.1-0.1-0.1-0.2-0.2-0.3c-0.2-0.1-0.4,0-0.5,0.2c0.1,0,0,0.1,0.1,0.1c-0.2,0-0.3,0.2-0.5,0.2c-0.2,0.1-0.2-0.2-0.2-0.4
				c0-0.1-0.2-0.2-0.3-0.1l-0.1,0.1c0,0-0.1-0.1-0.1,0c-0.1,0.1,0.1,0.1,0.2,0.2c0,0,0,0.1-0.1,0.1c-0.1,0.1-0.2-0.1-0.2,0
				c0,0.1-0.1,0.1-0.2,0.1c0,0,0,0,0,0.1l0,0c-0.1,0-0.1,0.1-0.2,0c-0.1,0,0-0.1-0.1-0.2h-0.1c0,0.1,0,0.2-0.1,0.2
				c0,0.1,0,0.1,0,0.2c0.1,0,0.2-0.1,0.2,0c0.1,0.1,0.1,0.3,0.1,0.5l0,0c0,0.1,0,0.3-0.1,0.2c-0.1-0.1,0-0.3-0.1-0.4
				c0,0-0.1,0-0.2,0c0.1,0.2-0.1,0.4,0.1,0.7c0.1,0.1-0.2,0.2-0.1,0.3c0.1,0.1,0.2,0.1,0.3,0.1c0.1,0,0-0.1,0-0.1s0.2-0.1,0.2,0
				c0,0,0,0.1,0,0.2c-0.1,0-0.1,0-0.2,0c0.1,0.1,0,0.2-0.1,0.4c0,0,0,0.1,0.1,0.1c0,0.1,0.2,0,0.3,0.1c0,0.1-0.1,0.2,0,0.2
				c0,0.1,0.1,0,0.2,0.1c0.1,0,0,0.1,0,0.2c0.1,0,0.2,0.1,0.1,0.2c0.1,0,0.1-0.1,0.1-0.1c0.2,0,0.1-0.2,0.1-0.3
				c-0.1,0-0.1-0.1-0.1,0c0-0.1,0-0.2,0-0.3c0-0.1-0.2-0.1-0.2-0.2c0.1,0,0.2,0,0.3-0.1c0-0.1,0.1,0,0.2,0.1c0,0,0,0,0,0.1
				c0.1,0,0.1,0.1,0.1,0.1c0.1,0.1,0.1,0.2,0.2,0.2c0.2,0,0.3,0,0.5,0c0-0.1,0-0.1,0-0.2c0.1-0.1,0.1,0.1,0.2,0.1
				c0,0.2,0,0.3,0.2,0.4h0.1l0.1,0.1h0.1c0.1,0,0.1,0.1,0.1,0.2c0,0,0,0,0,0.1c0.1,0,0.3,0,0.3,0.1c0.1,0.2,0.2,0.3,0.3,0.5
				c0,0.1,0.2,0.1,0.2,0.2s0.1,0.1,0.1,0.1c0.1,0.1,0.2,0.1,0.4,0.2c0,0,0.1-0.1,0.2-0.1h0.1c0.1,0.2,0.2,0.5,0.4,0.6
				c0.1,0.1,0.1,0.2,0.3,0.2c0.1,0,0.2-0.1,0.2,0l0.1,0.1c0.2,0.1,0.3,0.2,0.3,0.3c0,0,0,0.1,0.1,0.1c0.1,0,0.3-0.1,0.3,0
				c0.1,0.1,0.2,0.1,0.3,0.2c0,0,0.1,0.1,0.1,0c0,0,0-0.1,0-0.2s0.1-0.1,0.2-0.1c0.1,0,0.1-0.2,0.2-0.2c0.2,0,0.2,0.2,0.4,0.3
				c0,0,0.1,0,0.1,0.1c0.2,0.1,0.1,0.4,0.3,0.4c0.2,0,0.3,0.2,0.5,0.2c0.1,0,0.3,0.1,0.4,0.2c0,0,0.1,0,0.2,0c0.1,0,0.2-0.1,0.2-0.1
				c0.2-0.1,0.4-0.1,0.6-0.2l0.1-0.1c0.3-0.1,0.7,0.1,1-0.1c0.1,0,0.2,0,0.3-0.1c0.2-0.1,0.3-0.4,0.2-0.6c-0.1-0.3-0.3-0.7-0.5-1
				c-0.1-0.1-0.3-0.2-0.4-0.4c0,0-0.1,0-0.2-0.1s-0.1-0.2-0.1-0.3c0,0-0.1,0-0.2-0.1c0-0.1,0-0.2,0-0.3c0,0,0-0.1-0.1-0.1
				c-0.2,0-0.3-0.1-0.5-0.1c-0.1,0-0.1-0.1-0.2-0.1v-0.1c0.1-0.1,0.2-0.2,0.4-0.2c0-0.1-0.1-0.2,0-0.2c0.1-0.1,0.1-0.2,0-0.3
				c0,0,0-0.1-0.1-0.1c0-0.2,0.1-0.3,0-0.5c-0.1-0.1-0.3-0.2-0.3-0.4l-0.1-0.1c0-0.2,0.1-0.4,0-0.6c0-0.1-0.1-0.2-0.1-0.3
				c0,0,0.1-0.1,0.2-0.1c0.1-0.1,0.2-0.2,0.1-0.3c-0.1-0.1-0.2,0-0.3,0c0,0-0.1,0-0.1-0.1s0.1-0.2,0-0.3c-0.1,0-0.1-0.1-0.2-0.1
				c-0.1-0.1,0-0.2,0.1-0.3c0,0,0-0.1-0.1-0.1c0-0.1,0.1-0.2,0-0.3c0-0.1-0.1-0.2-0.2-0.2l0,0c-0.1,0.1-0.1,0.1-0.2,0v-0.1
				c0-0.1,0.1,0,0.2-0.1s0-0.2,0-0.3c0.3,0,0.3-0.1,0.3-0.3c-0.2,0-0.4,0-0.4-0.3c0-0.2,0-0.4-0.1-0.6c0-0.2,0-0.3,0.1-0.4l0.1-0.1
				c0.2,0,0.5,0,0.6-0.2c0.1-0.2-0.1-0.4,0-0.5c0.2-0.2,0.6-0.1,0.8-0.2c0.1-0.1,0.1-0.2,0-0.3c0-0.1-0.1-0.2-0.2-0.3
				c-0.1-0.1-0.3-0.1-0.4-0.2c0-0.1,0-0.2,0-0.2c0-0.1,0.1-0.2,0.3-0.3c0.3-0.1,0.5,0,0.7,0.1c0.1,0,0.1,0.1,0.2,0.2v0.1
				c0.1,0.3,0.2,0.6,0.1,0.8c0,0.1-0.2,0.1-0.1,0.3c0.1-0.1,0.1,0,0.1,0.1c0.1,0.2,0.2,0.5,0,0.6c-0.2,0.1-0.2,0-0.4,0
				c-0.1,0-0.2,0-0.2,0.1c0,0.1,0.1,0.2,0.1,0.2c0.5,0.1,0.8,0.2,1.3,0.3c0.1,0,0.2,0.2,0.3,0.2c0.1,0,0.2,0.1,0.3-0.1h0.1
				c0,0.1,0.1,0.1,0.2,0.1c0.2,0.1,0.1,0.5,0.3,0.4c0.1-0.1,0.2,0,0.3,0c-0.1,0.2-0.1,0.3,0.1,0.5c0.1,0.1,0.2,0.2,0.4,0.3
				c0.1,0.1,0.2,0.1,0.3-0.1c0-0.2-0.1-0.3,0.1-0.5c0.2,0.3-0.1,0.6,0.2,0.9c0,0,0,0,0,0.1c0.1,0.1,0.2,0.2,0.3,0.2
				c0.1,0,0.1-0.1,0.2-0.2v-0.1c0-0.1,0.1-0.2,0.1-0.2c0-0.1,0.2-0.2,0.2-0.4v-0.1c0-0.2,0.2-0.3,0.4-0.3c0.1,0,0,0,0.1-0.1
				c0.1-0.1,0.1-0.2,0.1-0.3c0.1-0.1,0.1-0.2,0.2-0.2c0-0.1,0.1-0.1,0.1-0.2C-224.1,406.9-224.1,406.8-224,406.8z"/>
			<path class="st0" d="M-229.9,406.4c-0.1-0.1-0.1,0-0.2,0c-0.1,0.1-0.1,0.1,0,0.2c0,0.1,0.1,0.1,0.1,0.2s0,0.3,0,0.4
				c0,0.1,0.2,0.3,0.2,0.2c0.1-0.1,0.2-0.4,0.1-0.5C-229.8,406.8-229.8,406.5-229.9,406.4z"/>
			<path class="st0" d="M-230.2,407.7c0,0.1,0,0.1,0.1,0.1c0,0.1,0.2,0.1,0.3,0c0,0,0-0.1-0.1-0.2
				C-229.9,407.6-230,407.6-230.2,407.7L-230.2,407.7C-230.2,407.6-230.2,407.6-230.2,407.7z"/>
			<path class="st0" d="M-229.9,408.2c0-0.2-0.2-0.3-0.3-0.2c-0.2,0.2,0,0.4,0.2,0.6c0,0,0,0.1,0.1,0.2c0.1,0.1,0.2,0,0.2,0
				c0-0.1,0.1-0.1,0.1-0.2C-229.6,408.5-229.7,408.2-229.9,408.2z"/>
			<path class="st0" d="M-230.3,407.1L-230.3,407.1c-0.2,0-0.2,0.1-0.2,0.1c0,0.1,0,0.2,0.1,0.3c0,0,0.1,0,0.1-0.1
				C-230.2,407.4-230.3,407.2-230.3,407.1z"/>
			<path class="st0" d="M-229.7,408c0,0,0.1-0.1,0.1-0.2c0.1,0,0.1,0,0.2-0.1v-0.1c-0.1,0-0.2,0.1-0.3,0.2
				C-229.9,407.9-229.8,408-229.7,408z"/>
			<path class="st0" d="M-229.9,409.2c0,0.1,0,0.2,0.1,0.2h0.1c0-0.1,0.1-0.1,0-0.2l0,0C-229.8,409.2-229.8,409.3-229.9,409.2z"/>
			<path class="st0" d="M-229.5,410.3c0-0.1,0.1-0.2,0-0.3h-0.1C-229.6,410.1-229.6,410.2-229.5,410.3z"/>
			<path class="st0" d="M-238.5,413.8c0,0,0,0.1,0,0.2c0,0,0.1,0,0.2,0C-238.3,413.9-238.3,413.7-238.5,413.8z"/>
			<path class="st0" d="M-237.5,414.7c-0.1,0.1,0.1,0.3,0.3,0.3c0-0.1,0-0.2,0-0.2C-237.3,414.7-237.5,414.7-237.5,414.7z"/>
			<path class="st0" d="M-237.1,415.3c0,0.3,0.1,0.4,0.3,0.5C-236.8,415.5-236.9,415.3-237.1,415.3z"/>
			<path class="st0" d="M-222.9,408.1c0.2-0.1,0.5-0.1,0.8-0.1c0.6,0,0.6-0.8,0.9-1.3c0.1-0.1,0-0.4-0.1-0.5c-0.2-0.3-0.9,0-1-0.3
				c-0.1-0.2,0.4,0.1,0.5-0.2c0-0.1,0-0.2-0.1-0.2c-0.1,0-0.3-0.1-0.3,0c-0.3,0.3-0.4,0.8-0.6,1.1c-0.4,0.6-1,1.1-1.3,1.7
				c-0.1,0.1,0,0.2,0.1,0.2C-223.6,408.6-223.2,408.1-222.9,408.1z"/>
			<path class="st0" d="M-220.3,406.5c-0.1,0-0.2,0.1-0.2,0.1c0,0.1-0.1,0.2,0,0.3h0.2c0.1-0.1,0-0.2-0.1-0.2
				C-220.4,406.7-220.3,406.6-220.3,406.5z"/>
			<path class="st0" d="M-222.2,408.7c0.2,0.2,0.7,0.2,0.6-0.1c-0.1-0.2-0.4-0.3-0.6-0.2C-222.3,408.4-221.9,408.6-222.2,408.7z"/>
			<path class="st0" d="M-221.5,410.5c0.2-0.1,0.1-0.3,0.1-0.5c-0.2,0.1-0.3,0.2-0.4,0.5C-221.7,410.5-221.6,410.5-221.5,410.5z"/>
			<path class="st0" d="M-219,406.8v-0.2c0,0-0.1,0-0.2,0c-0.1,0-0.1-0.1-0.1-0.2s-0.1-0.2-0.1-0.4c-0.2,0.1-0.1,0.2-0.1,0.3
				C-219.4,406.5-219.3,406.8-219,406.8z"/>
			<path class="st0" d="M-222.4,405C-222.5,405-222.5,405-222.4,405c-0.1,0.1,0,0.1,0.1,0.1C-222.3,405.1-222.3,405-222.4,405z"/>
			<path class="st0" d="M-239,410.4c0-0.1,0-0.1-0.1-0.1c-0.1-0.1-0.1,0-0.2-0.1c0,0.1,0,0.1,0,0.2
				C-239.2,410.5-239.1,410.5-239,410.4z"/>
			<path class="st0" d="M-238.1,410.4c0.1,0,0.2-0.1,0.2-0.2l0,0c-0.2-0.1-0.4-0.1-0.3,0.1C-238.3,410.4-238.2,410.5-238.1,410.4z"
				/>
			<path class="st0" d="M-222,400.5c0-0.1,0.2-0.1,0.2-0.2c0,0-0.1,0-0.2,0C-222,400.2-222,400.3-222,400.5
				C-222,400.4-222.1,400.4-222,400.5C-222.1,400.5-222,400.5-222,400.5z"/>
			<path class="st0" d="M-221.5,400.3c0,0,0.1-0.1,0-0.2c-0.1-0.1-0.2-0.1-0.2,0C-221.7,400.2-221.6,400.4-221.5,400.3z"/>
			<path class="st0" d="M-223,404.1c-0.1,0.2,0.2,0.4,0.4,0.3c0.1-0.1,0.1-0.3,0-0.3C-222.8,403.9-223,404-223,404.1z"/>
			<path class="st0" d="M-222.7,405.1c0.1-0.1,0-0.1-0.1-0.2c-0.1,0-0.2,0-0.3,0c0,0,0,0-0.1,0c0,0.1,0,0.1,0.1,0.1
				C-222.8,405.1-222.7,405.2-222.7,405.1z"/>
			<path class="st0" d="M-223.1,405.5c-0.1,0-0.1,0.2,0,0.3c0.1,0,0.2,0,0.3-0.1c0-0.1,0.1-0.2,0-0.3
				C-222.9,405.3-223,405.4-223.1,405.5z"/>
			<path class="st0" d="M-223.4,405.1c0,0.1-0.1,0.3,0,0.4c0,0.1,0.1,0.1,0.2,0c0-0.1,0-0.2,0.1-0.3c0,0-0.1-0.1-0.1,0v-0.1
				C-223.3,405-223.3,405.1-223.4,405.1z"/>
			<path class="st0" d="M-221.5,412.9L-221.5,412.9L-221.5,412.9L-221.5,412.9z"/>
			<path class="st0" d="M-212.5,415L-212.5,415C-212.5,415-212.6,415-212.5,415C-212.6,415-212.5,415-212.5,415z"/>
			<path class="st0" d="M-220.8,409.6L-220.8,409.6c-0.1-0.1-0.2-0.1-0.2-0.2c-0.1-0.1-0.1,0.1-0.2,0.1c0,0,0,0,0,0.1
				c0.1,0.1,0,0.2-0.1,0.3c0,0.1,0.1,0.1,0.1,0.2c0,0.1-0.1,0.2,0,0.3c0,0-0.1,0.1-0.1,0.2c0,0-0.1,0.1,0,0.2
				c0.1,0.1,0.3-0.1,0.4-0.1c0.1,0,0.1,0,0.2-0.1c0.1-0.1,0.2-0.1,0.2-0.2l-0.2-0.1c0.1-0.2,0-0.3,0-0.5
				C-220.8,409.7-220.7,409.6-220.8,409.6z"/>
			<path class="st0" d="M-219.9,412.3C-219.9,412.3-219.8,412.3-219.9,412.3c0.2-0.1,0.2-0.2,0.1-0.3c0-0.1-0.2-0.1-0.2,0
				C-220,412.2-219.9,412.2-219.9,412.3z"/>
			<path class="st0" d="M-219.8,411.9c0.1,0,0-0.1,0-0.2h-0.1C-219.9,411.8-219.9,411.9-219.8,411.9z"/>
			<path class="st0" d="M-218.9,412.3C-219,412.3-219,412.3-218.9,412.3c-0.1,0-0.2-0.1-0.3-0.1h-0.1c0,0.1,0,0.2,0,0.2
				C-219.2,412.4-219,412.4-218.9,412.3z"/>
			<path class="st0" d="M-217.5,412.2L-217.5,412.2c-0.1-0.1-0.2,0-0.4,0c0,0.1,0,0.1,0,0.1h-0.1
				C-217.8,412.4-217.6,412.2-217.5,412.2z"/>
			<path class="st0" d="M-216.9,411.7c0.1,0.2,0.3,0.1,0.3,0C-216.6,411.6-216.7,411.6-216.9,411.7
				C-216.8,411.7-216.8,411.7-216.9,411.7C-216.8,411.6-216.9,411.6-216.9,411.7z"/>
			<path class="st0" d="M-210.2,407.2c0,0.1,0.2,0.1,0.3,0.2c0.1,0,0.3,0,0.4-0.1c0.1-0.2-0.2-0.4-0.4-0.4
				C-210.1,406.9-210.1,407-210.2,407.2z"/>
			<path class="st0" d="M-210.1,414.4c-0.1,0-0.2,0-0.2,0c-0.2,0.7-0.8,1.7,0,2.1c0.3,0.2,0.8-0.2,0.8-0.4
				C-209.5,415.6-209.5,414.7-210.1,414.4z"/>
			<path class="st0" d="M-212.3,411.3c-0.1,0.1-0.1,0.3,0,0.3c0.1,0,0.1-0.1,0.2-0.1c0.1-0.1,0.1-0.2,0-0.2
				C-212.1,411.3-212.2,411.3-212.3,411.3z"/>
			<path class="st0" d="M-211.8,418.5c-0.1,0.1,0,0.3,0.1,0.3c0-0.1,0.2-0.2,0-0.3C-211.7,418.4-211.7,418.5-211.8,418.5z"/>
			<path class="st0" d="M-208.5,402c-0.1,0-0.1,0-0.2,0.1c0,0.1,0,0.2,0,0.3c-0.2,0.6-1,1.2-0.6,1.9h0.1c0.2-0.1,0.3-0.3,0.4-0.5
				c0.2-0.4,0.4-0.9,0.5-1.4C-208.3,402.2-208.3,402-208.5,402z"/>
			<path class="st0" d="M-209.7,404.5c-0.1,0.1,0.1,0.1,0.1,0.1c0.1,0,0.1-0.2,0.1-0.2C-209.6,404.4-209.7,404.4-209.7,404.5z"/>
			<path class="st0" d="M-216.9,400.1c-0.1-0.3-0.3,0-0.5,0c-0.1,0-0.1-0.1-0.1-0.1c-0.1,0-0.1,0-0.2,0.1c-0.1,0.1,0,0.2,0.1,0.2
				c0.1,0,0.1-0.1,0.2,0c0.1,0.1,0,0.4,0.2,0.3c0.1,0,0.2-0.1,0.4-0.1c0.1,0,0.2-0.2,0.1-0.3c0.2,0,0.3-0.1,0.4,0
				c0,0,0.1,0.1,0.1,0.2s0.2,0.1,0.3,0.1c0.1,0,0.3,0,0.4-0.1s0.1-0.3,0-0.4c-0.1,0-0.2,0-0.2,0c-0.1-0.1-0.2-0.2-0.3-0.2
				C-216.4,399.5-216.7,399.9-216.9,400.1z"/>
			<path class="st0" d="M-215.7,400.4h-0.1l0,0H-215.7z"/>
			<path class="st0" d="M-218.3,400.3c0.1,0,0.3,0,0.4,0l0,0c0-0.2-0.2-0.2-0.4-0.1l0,0h-0.1C-218.5,400.3-218.4,400.3-218.3,400.3z
				"/>
			<path class="st0" d="M-217.8,401.3c0.2-0.2,0.4-0.3,0.6-0.4c0,0,0,0,0-0.1c0,0,0,0,0,0.1c0-0.1-0.1-0.2-0.2-0.2
				c0,0.1-0.1,0.2-0.2,0.2c-0.1,0.1-0.3,0.2-0.3,0.3c0,0.1-0.1,0.3,0,0.3C-217.9,401.4-217.8,401.3-217.8,401.3z"/>
			<path class="st0" d="M-220,399.9c0,0.1,0,0.1,0.1,0.2c0.1,0,0.1-0.1,0.1-0.2C-219.9,399.8-220,399.8-220,399.9z"/>
			<path class="st0" d="M-225,396.7c0.2,0.1,0.4,0.1,0.5,0.1c0,0,0.1-0.1,0.1-0.2c-0.1-0.1-0.2,0-0.3-0.1h-0.1
				C-225,396.4-225,396.5-225,396.7C-225.1,396.6-225,396.7-225,396.7z"/>
			<path class="st0" d="M-212.1,399c-0.1,0.1-0.2,0-0.3,0.1c-0.1,0-0.1,0.1,0,0.2c0.1,0.2,0.2,0.1,0.4,0c0,0.1,0,0,0.1,0.1
				c0.1,0,0.1-0.1,0.2-0.1v0.1c-0.3,0.1-0.3,0.2-0.3,0.2c-0.1,0-0.2,0-0.2-0.1h-0.1l0,0c0,0.1,0,0.2,0,0.2c-0.2,0.2-0.6,0.3-0.4,0.5
				c0.1,0.2,0.4,0.1,0.7,0.1c0,0,0.1,0,0-0.1c0-0.2,0.1-0.3,0.2-0.4c0.1,0,0-0.1-0.1-0.2c-0.1,0,0-0.2,0.1-0.2
				c0.1,0,0.1-0.1,0.2-0.1c0-0.1,0-0.1,0-0.1c0.1,0,0.3-0.1,0.2-0.2c0-0.2-0.2-0.3-0.1-0.5c0-0.1,0.1-0.1,0.2-0.2c0,0,0.1-0.1,0-0.1
				c0,0,0,0-0.1,0c0,0.1-0.1,0-0.1,0.1c-0.1,0-0.3,0-0.4,0.1C-212.1,398.7-212.1,398.9-212.1,399z"/>
			<path class="st0" d="M-213.6,400.4c0,0.2,0.2,0.1,0.3,0c-0.1,0,0-0.1-0.1-0.1C-213.5,400.4-213.6,400.4-213.6,400.4z"/>
			<path class="st0" d="M-211.5,400.1c-0.1,0.1,0.2,0.1,0.3,0.1l0,0c0,0,0,0,0-0.1C-211.4,400-211.5,400.1-211.5,400.1z"/>
			<path class="st0" d="M-211.1,399.4L-211.1,399.4c0,0,0,0.2,0.1,0.1C-211.1,399.5-211.1,399.5-211.1,399.4L-211.1,399.4z"/>
			<path class="st0" d="M-214.2,393.7c0.1,0.1,0.2,0.2,0.3,0.3c0.1,0.2,0,0.3,0.1,0.5c0,0.1,0.1,0.1,0.1,0.1c0.1,0.1,0,0.2,0,0.3
				c0.1,0.2,0.1,0.4,0.1,0.6c0.1,0,0.1,0.1,0.2,0.1c0,0.1,0.1,0.2,0.1,0.3s0.2,0.1,0.3,0.2c0.1,0.2,0.3,0.4,0.5,0.5
				c0.1,0,0.2,0,0.2,0.1v0.1c0.3,0,0.6,0.2,0.5,0.5c0.1-0.1,0.2-0.1,0.3-0.2c0.1-0.2,0.1-0.4,0-0.6c-0.1-0.1-0.2-0.2-0.2-0.3
				c0-0.1,0-0.2,0-0.2c0-0.1-0.2-0.1-0.2-0.1c-0.1-0.1-0.1-0.4,0.2-0.4c0,0,0,0,0-0.1c-0.1,0-0.2,0-0.3,0c-0.1,0-0.1-0.1-0.1-0.1
				c0-0.1,0-0.3-0.1-0.4c-0.1-0.1-0.3-0.1-0.4-0.2s-0.2-0.1-0.3-0.2c-0.1,0-0.2,0.1-0.2,0c-0.2-0.3-0.4-0.5-0.6-0.8
				c-0.1-0.1-0.2-0.1-0.4-0.1L-214.2,393.7c0.1,0,0.1,0,0.2,0C-214.2,393.6-214.3,393.7-214.2,393.7z"/>
			<path class="st0" d="M-215.6,394.2c-0.1,0.1-0.1,0.3,0,0.3c0.1,0.1,0.3,0,0.5,0c0.1,0,0.2-0.1,0.2-0.2c0.1-0.1,0.3-0.1,0.5-0.1
				c0,0.1,0.1,0.1,0.1,0.1c0-0.1,0-0.3-0.1-0.3c-0.2-0.1-0.2-0.2-0.3-0.4c0-0.1-0.1,0-0.1,0.1c0,0.3-0.2,0.2-0.4,0.3v0.1
				c0,0,0,0-0.1,0c0,0-0.1,0,0-0.1c-0.1,0-0.2,0-0.2,0.1C-215.4,394.1-215.5,394.1-215.6,394.2z"/>
			<path class="st0" d="M-218.9,388.6c-0.2-0.3-0.4-0.6-0.3-0.9c0.4,0.2,0.8,0.1,1.3-0.1c0.3-0.1,0.7,0.1,1-0.1c0,0,0-0.1,0-0.2
				c-0.4,0.2-0.7-0.3-1-0.1c-0.4,0.3-0.9,0.3-1.3,0.4c-0.3,0.1-1.2,0-1.3,0.5c0.5,0,1,0,1.3,0.5C-219.2,388.7-219,388.6-218.9,388.6
				z"/>
			<path class="st0" d="M-217.4,390.7c0.1,0.2,0.4,0.3,0.6,0.4c0-0.1,0-0.2-0.1-0.2C-217.1,390.7-217.3,390.7-217.4,390.7z"/>
			<path class="st0" d="M-217.8,391.4c-0.1,0,0,0.2,0.1,0.2C-217.7,391.6-217.6,391.4-217.8,391.4z"/>
			<path class="st0" d="M-218.1,391C-218.1,391-218,391-218.1,391C-218,391-218,391-218.1,391c0.1-0.2-0.1-0.2-0.2-0.3v0.1
				C-218.2,390.9-218.2,391-218.1,391z"/>
			<path class="st0" d="M-216.8,392.6C-216.8,392.7-216.8,392.7-216.8,392.6c0.1,0,0.1-0.1,0.1-0.1l0,0c0,0,0-0.1,0-0.2h-0.1
				C-216.9,392.5-216.8,392.5-216.8,392.6z"/>
			<path class="st0" d="M-216.4,392.7c0,0.1,0,0.1,0,0.2h0.1C-216.3,392.8-216.3,392.7-216.4,392.7
				C-216.3,392.6-216.4,392.7-216.4,392.7z"/>
			<path class="st0" d="M-216.6,393c0,0.1,0.1,0,0.1-0.1l0,0l0,0l0,0l0,0c-0.1-0.1-0.2-0.1-0.2-0.1
				C-216.8,392.9-216.6,392.9-216.6,393z"/>
			<path class="st0" d="M-216.4,393C-216.3,393.1-216.5,393.1-216.4,393c0.1,0.2,0.2,0.2,0.3,0.2c0.1,0,0.1-0.1,0.1-0.2
				C-216.1,393-216.2,393-216.4,393C-216.3,393-216.4,393-216.4,393z"/>
			<path class="st0" d="M-215.7,393.3c0.1,0,0-0.1,0-0.1c0-0.1-0.1-0.2-0.1-0.1c-0.1,0-0.1,0.2,0,0.2
				C-215.8,393.3-215.8,393.4-215.7,393.3z"/>
			<path class="st0" d="M-215.5,393.7c0,0,0.1,0,0.1-0.1v-0.1l0,0v-0.1c0,0-0.1,0.1-0.1,0l0,0c0,0-0.1-0.1-0.1,0
				c-0.1,0-0.1,0.1,0,0.2C-215.6,393.6-215.6,393.7-215.5,393.7z"/>
			<path class="st0" d="M-215.9,394C-215.9,394-215.8,394-215.9,394c0.1-0.1,0.1-0.2,0.1-0.2s0,0-0.1,0c0,0,0,0.1-0.1,0.1
				C-216,394-216,394-215.9,394z"/>
			<path class="st0" d="M-216.3,387L-216.3,387L-216.3,387c-0.1-0.1-0.2-0.1-0.2-0.1C-216.5,387-216.4,387.1-216.3,387z"/>
			<path class="st0" d="M-211.5,390.5c0.1,0.1,0.2,0,0.3,0.1c0.1,0.1,0.1,0.2,0.3,0.2c0.1,0,0.2,0,0.2-0.1c0-0.2-0.1-0.5-0.3-0.6
				c-0.2-0.1-0.4-0.1-0.7-0.1c-0.1,0-0.1,0.2-0.1,0.2C-211.7,390.3-211.6,390.4-211.5,390.5z"/>
			<path class="st0" d="M-205.7,397.8c-0.2-0.2-0.2-0.4-0.3-0.6c-0.1-0.1-0.3-0.2-0.4-0.3c-0.1-0.1,0-0.2,0-0.3
				c-0.1,0-0.1-0.1-0.1-0.1c-0.1-0.2-0.2-0.3-0.3-0.4c0.1-0.2-0.2-0.3-0.4-0.4v-0.1c0-0.1-0.1-0.1-0.2-0.1h-0.1
				c-0.1-0.1-0.3-0.3-0.3-0.4c-0.1-0.2-0.3-0.3-0.4-0.4c-0.1,0-0.1-0.2-0.2-0.2c-0.1,0-0.3,0-0.3-0.1c0-0.3-0.2-0.4-0.4-0.6
				c-0.3-0.2,0-0.6-0.1-0.9c0-0.1-0.2-0.1-0.3-0.1c0,0-0.1,0-0.1-0.1c-0.1-0.2,0-0.4-0.2-0.6c-0.2-0.3-0.4-0.5-0.6-0.8
				c-0.1-0.1-0.3-0.1-0.5-0.1c0,0-0.1,0-0.1-0.1c-0.1,0-0.1-0.1-0.1-0.2c-0.1-0.2-0.3-0.2-0.4-0.3c-0.3-0.1-0.6-0.1-0.9-0.1
				c-0.2,0-0.5,0.1-0.7,0.2c-0.2,0.2-0.5,0.2-0.7,0.3c-0.1,0,0,0.2,0,0.2c-0.1,0.1-0.2,0.2-0.1,0.3c0,0-0.1,0,0,0
				c0.1,0.1,0.2,0,0.2,0c0.1,0,0.1,0.1,0.2,0.2c0.1,0.1,0.3,0.2,0.3,0.4c0,0.1-0.1,0.2,0,0.2c0.2,0.2,0.1,0.3,0.1,0.5
				c0,0.1,0.2,0,0.2,0c0.2,0.1,0.3,0.4,0.2,0.6c0,0.1,0,0.3,0,0.4c0.1,0.2,0.1,0.5,0.3,0.7c0-0.1,0.1-0.2,0.1-0.2
				c0.2,0,0.2-0.1,0.3-0.2c0.3-0.2,0.6,0.2,0.7,0.5c0.1,0.3,0,0.6,0.1,0.8c0.1,0.2,0.2,0.4,0.5,0.6c0.1,0,0.1,0.2,0.1,0.3
				s0.1,0.1,0.2,0.1c0.1,0,0-0.2,0.1-0.2s0.2,0,0.2,0.1c0.2,0.3,0.3,0.8,0.7,0.8c0,0.1,0,0.1,0.1,0.1s0.2-0.1,0.2,0
				c0.1,0.1,0.1,0.2,0.2,0.3c0.2,0,0.3,0,0.5,0c0.1,0,0.2,0.1,0.2,0.2s0.1,0.1,0.2,0.2c0.3,0.3,0.4,0.7,0.8,0.9
				c0.1,0.1,0.2,0.2,0.4,0.2c0,0,0-0.1,0.1-0.1c0.1,0,0.2-0.1,0.3-0.2c0.1-0.1,0.3-0.3,0.5-0.4v-0.1c0.1-0.1,0.3-0.1,0.4-0.3
				C-205.6,398.1-205.6,397.9-205.7,397.8z"/>
			<path class="st0" d="M-211.4,397.2C-211.3,397.2-211.3,397.2-211.4,397.2c0.1,0,0.1,0,0.2,0H-211.4z"/>
			<path class="st0" d="M-211.6,397.9c0.1,0.1,0.2,0.1,0.3,0.2c0.1,0.1,0.2,0.2,0.2,0.3c0.2,0.1,0.1-0.2,0.2-0.3c0,0,0.1,0,0.2,0
				c0.1-0.2,0-0.4-0.2-0.5c-0.1-0.1-0.2-0.3-0.4-0.3c-0.1,0-0.2,0-0.2,0.1c-0.1,0.1,0,0.3-0.1,0.4
				C-211.6,397.8-211.7,397.9-211.6,397.9z"/>
			<path class="st0" d="M-210.5,398.6c-0.1,0.3,0,0.5-0.1,0.8c0,0.1-0.2,0.1-0.3,0.2c-0.1,0.1-0.1,0.2-0.1,0.3
				c0,0.2,0.2,0.2,0.4,0.2c0.3,0.2,0.7,0.4,0.9,0.8c0.1,0.1,0.1,0.3,0.2,0.4s0.3,0.1,0.3,0.3c0,0.1,0.1,0.1,0.2,0.1
				c0.2-0.1,0.2-0.4,0-0.6c-0.1-0.1-0.2-0.2-0.2-0.3c0-0.4-0.1-0.7-0.3-1.1c-0.1-0.2-0.4-0.3-0.5-0.4c0,0-0.1-0.1,0-0.1
				c0-0.1,0.1-0.2,0.2-0.3c0-0.2-0.2-0.3-0.3-0.5h-0.1h0.1C-210.3,398.4-210.5,398.4-210.5,398.6z"/>
			<path class="st0" d="M-208.5,400.5c0-0.1,0-0.2,0-0.4c0-0.2-0.2-0.2-0.4-0.2c-0.1,0-0.2,0-0.2,0.1s0,0.2,0,0.3
				c0.3,0.4,0.3,0.9,0.4,1.3c0,0.2,0.4,0,0.4-0.2c0-0.1,0-0.2,0-0.3c0-0.1-0.1-0.2-0.2-0.3C-208.4,400.7-208.5,400.6-208.5,400.5z"
				/>
			<path class="st0" d="M-209,399.3c-0.1,0.1,0.1,0.2,0,0.4c0,0,0,0,0.1,0c0.1,0,0.1-0.1,0.1-0.1C-209,399.6-209,399.4-209,399.3
				L-209,399.3z"/>
			<path class="st0" d="M-209.1,398.9c0-0.1,0-0.2-0.1-0.2c0,0.1-0.2,0.1-0.2,0.2c-0.1,0.1,0,0.2,0.1,0.2l0,0
				C-209.1,399.3-209,399.1-209.1,398.9C-209,398.9-209.1,398.9-209.1,398.9z"/>
			<path class="st0" d="M-209.8,398.2c0.2,0.1,0,0.3,0.1,0.4c0.1,0.1,0.3,0.1,0.4,0c0.1-0.1,0-0.2-0.1-0.2c-0.1,0-0.1-0.1,0-0.2
				h-0.1c-0.1-0.1,0.1-0.2,0-0.3v-0.1c-0.1,0-0.1,0-0.1,0.1s0,0.1,0,0.2C-209.7,398.1-209.9,398.2-209.8,398.2z"/>
			<path class="st0" d="M-209.9,397.4c-0.1,0-0.2,0-0.3-0.1h-0.1l0,0c0,0.1-0.1,0.1,0,0.2c0.1,0.1,0.1,0.1,0.1,0.2
				c0,0.1,0.2,0,0.2,0.1s0.1,0.1,0.2,0.1c0.1,0,0-0.1,0-0.2c0,0,0-0.1-0.1,0C-209.9,397.5-209.8,397.4-209.9,397.4z"/>
			<path class="st0" d="M-219.9,403.9L-219.9,403.9c0.1,0,0.1-0.1,0.1-0.1s0-0.1-0.1-0.1c0-0.1-0.1,0-0.1,0.1l0,0
				C-219.9,403.8-219.9,403.8-219.9,403.9z"/>
			<path class="st0" d="M-208.9,402.1c-0.2-0.1-0.4,0-0.5,0.1c-0.3,0.2-0.4,0.6-0.6,0.9c-0.1,0.2-0.3,0.2-0.5,0.2c0,0-0.1,0-0.1-0.1
				c0-0.1,0-0.2,0-0.3c0.1-0.1,0.1-0.1,0.2-0.2c0.1-0.2,0-0.3,0-0.5c-0.1-0.3-0.4-0.5-0.7-0.4c-0.3,0.1-0.5,0.4-0.6,0.6h-0.1
				c-0.1-0.1-0.3-0.2-0.3-0.4c0,0,0,0,0-0.1c0.1,0.1,0.2,0.2,0.4,0.2c0.1-0.1,0-0.2-0.1-0.3c-0.1,0-0.2-0.1-0.3-0.1
				s-0.2-0.1-0.2-0.2c0-0.2-0.1-0.4-0.2-0.4c-0.2-0.1-0.3-0.1-0.4-0.2c-0.1,0-0.2,0-0.2,0v-0.2c0.2,0,0.4,0,0.3-0.2
				c0-0.1-0.1-0.2-0.3-0.1c0,0-0.1,0-0.1,0.1c0,0,0,0.1-0.1,0.1c0,0.1,0.1,0.2,0,0.3c-0.1,0.1-0.3,0.1-0.4,0.2h-0.1
				c-0.1,0-0.3-0.2-0.4-0.1c-0.1,0.1-0.1,0.2-0.2,0.3c-0.1,0-0.2,0.1-0.3,0.1c-0.2,0.1-0.1,0.3,0,0.4c0,0.1,0,0.1,0,0.2
				c-0.1,0.1-0.1-0.1-0.2-0.1c0-0.2-0.1-0.3-0.1-0.5s0.2-0.3,0.2-0.4s0.1-0.2,0-0.3c-0.1-0.1-0.2-0.2-0.3-0.1
				c-0.3,0.1-0.4,0.6-0.7,0.5c-0.2-0.1-0.3-0.2-0.5-0.3c-0.1-0.1-0.2-0.1-0.3,0c-0.2,0.2-0.5,0.3-0.7,0.4c-0.2,0.1-0.4,0.3-0.5,0.5
				c-0.1,0.3-0.6,0.4-0.8,0.1c-0.1-0.2-0.2-0.3-0.4-0.3c-0.2,0-0.2,0.2-0.4,0.3c-0.1,0-0.2,0-0.3-0.1v-0.1c0.2-0.2,0.5-0.4,0.8-0.5
				c0.1,0,0.2-0.2,0.1-0.4v-0.1c0-0.1,0-0.2-0.1-0.2c-0.4,0-0.7,0.3-0.9,0.6c0,0,0,0.1-0.1,0.1c-0.2,0-0.5,0.1-0.7,0l-0.1-0.3
				c-0.1,0.1-0.2,0.2-0.2,0.3c0,0.1-0.1,0.1-0.1,0.1c-0.1,0.2,0.1,0.4,0.1,0.6c0,0.1-0.3,0.1-0.4,0.1c-0.1,0-0.1,0.1-0.1,0.2
				c0,0.1,0.1,0.1,0.1,0.1c0.1,0.1,0.1,0.4,0.3,0.4c0.2,0.1,0.5,0,0.7,0.1c0.2,0,0.3,0.2,0.4,0.3c0,0.1,0.2,0.1,0.2,0.3l0.1,0.1
				c0.1,0,0.2-0.1,0.2,0c0.1,0,0.1,0.2,0.1,0.3c0.1,0.2,0,0.4,0.1,0.5c0.1,0.1-0.1,0.2-0.1,0.3c0,0-0.1,0-0.2,0.1
				c0,0.1,0,0.3,0.1,0.4c0.1,0.1,0.1,0,0.2,0c0.1,0.2,0.2,0.3,0.3,0.5c0,0.1,0.1,0.1,0.2,0.2c-0.1,0-0.1,0.1-0.1,0.1
				c0,0.1,0.2,0.1,0.2,0c0.1-0.1,0.2-0.1,0.3-0.2c0.1-0.1,0.1,0,0.2-0.1c0.1,0.1,0.1,0.2,0.1,0.2c-0.1,0.1-0.4,0-0.5,0.1
				c-0.1,0-0.2,0-0.3,0.1c-0.1,0.1,0,0.2,0.1,0.2c0.3,0.1,0.1,0.5-0.1,0.8c0,0.1,0,0.1,0,0.2l-0.1,0.1c-0.3,0-0.6-0.1-0.9,0
				c-0.1,0-0.1,0.2-0.2,0.3c0,0,0,0,0.1,0c-0.1,0-0.1,0.1-0.1,0.1c0,0.1,0,0.2,0,0.2c-0.3,0.3-0.3,0.7-0.4,1.1
				c0,0.1,0.1,0.2,0.2,0.2c0.1,0,0.2-0.1,0.3-0.1c0.1,0,0.1,0.2,0.2,0.3c0.1,0.1,0.3,0.1,0.3,0s0-0.3,0.1-0.4c0-0.2-0.1-0.3-0.1-0.4
				c0-0.1,0-0.3,0.1-0.3c0.1-0.1,0.1,0,0.2,0.1c0,0.1,0,0.2,0.1,0.3c0,0.1,0,0.2,0,0.3c0.1,0.1,0.1,0.2,0.1,0.2l-0.1,0.1
				c0,0.1,0,0.3-0.1,0.3c-0.1,0.1-0.1,0.2-0.2,0.2c-0.3,0-0.6-0.1-0.5-0.4c-0.1,0-0.2,0-0.3,0.1c-0.1,0.1,0,0.3-0.1,0.4
				c-0.1,0.1-0.2,0.2-0.3,0.4c0,0,0,0,0,0.1c-0.1,0.2-0.3,0.2-0.5,0.3l0,0c-0.1,0.1-0.3,0-0.3,0.1c-0.1,0.1,0.1,0.2,0.2,0.4
				c0,0.1,0,0.2-0.1,0.2c-0.2,0-0.3,0-0.5,0c0,0.1,0,0,0,0.1c0,0.2,0,0.3-0.1,0.4c-0.1,0.1,0,0.2,0.1,0.3c0.1,0.1,0.1,0.3,0.2,0.3
				c0.1,0,0.1,0.1,0.2,0.1c0.2,0,0.3-0.1,0.3-0.3c0-0.1,0.2,0,0.3,0h0.1c0.1-0.1,0-0.2,0-0.3c0.2-0.2,0.4-0.4,0.6-0.5
				c0.1-0.1,0.2-0.1,0.3-0.1s0.2,0.1,0.3,0.1c0.1,0,0.2,0.1,0.2,0.2c0,0,0.1,0,0.1,0.1c0.1,0.1,0.2,0.2,0.4,0.3c0,0,0-0.1,0.1,0
				c0-0.1,0-0.3-0.1-0.4s-0.3-0.2-0.4-0.3c0,0,0-0.1,0-0.2h0.1c0.1,0.1,0.2,0.1,0.3,0.1c0.2,0.1,0.1,0.3,0.3,0.4
				c0.1,0,0.1,0.2,0.3,0.2c0.1,0,0.3,0,0.4-0.2c0.1-0.1-0.1-0.1-0.1-0.2c-0.1-0.1,0.1-0.1,0.1-0.2c0.1-0.1,0-0.3,0-0.4
				c0-0.1,0-0.1,0.1-0.1l0,0c0.1-0.2,0-0.3,0.1-0.5h0.1c0,0.1,0.1,0.1,0.2,0.1c0.1,0,0.2-0.1,0.3-0.2c0.1-0.1,0.4-0.1,0.4,0.1
				c0,0.1,0,0.3-0.1,0.3c-0.3,0-0.5,0.1-0.7,0.3c0,0-0.1,0-0.1,0.1c-0.1,0.1-0.2,0.2-0.1,0.3c0,0.1-0.1,0.1-0.1,0.2
				c0.1,0,0.1,0.2,0.2,0.2c0.2,0,0.3,0,0.5-0.1c0,0,0.1-0.1,0-0.2c0.1,0,0.2-0.1,0.3-0.2c0.3,0,0.4,0.2,0.3,0.5c0,0-0.1,0-0.1,0.1
				c-0.1,0.2-0.2,0.4-0.4,0.5c-0.3,0.2-0.7,0.1-1,0.3c-0.1,0.1-0.1,0.3-0.3,0.3c-0.1,0-0.3,0.1-0.5,0l0,0c0,0.1-0.3,0-0.5,0
				c-0.1,0,0-0.2-0.1-0.2s-0.2,0-0.2,0v-0.1c-0.4-0.1-0.7,0-1.1,0c-0.1,0-0.1,0.1-0.2,0.2c-0.1,0-0.1,0.1-0.2,0.1
				c-0.1,0.1-0.3,0.2-0.5,0.1c-0.2,0-0.3,0.1-0.4,0.1c-0.2,0-0.4,0.2-0.6,0.4c-0.1,0.1-0.3,0.1-0.5,0.1c0,0,0,0.1-0.1,0.1
				c-0.3,0.1-0.5,0.4-0.6,0.7c0,0.1,0,0.2,0,0.2c-0.1,0.2-0.2,0.4-0.4,0.6v0.1c0.2,0.3,0.4,0.5,0.7,0.8c0,0.1,0.2,0.1,0.2,0.2
				c0.1,0.2,0.2,0.3,0.3,0.5c0.1,0.2,0.5,0.3,0.8,0.2c0.1,0,0.2,0.1,0.3,0.1c0.3,0,0.7,0.1,1-0.1c0.5,0.1,1-0.1,1.4,0.1
				c0.1,0,0.1,0.2,0.1,0.3c0.1,0.2,0.2,0.4,0.4,0.5c0.2,0.1,0.4,0.2,0.6,0.2c0.1,0,0.1,0.1,0.1,0.2c0.1,0.1,0,0.2,0.1,0.3
				c0.1,0.1,0.2,0.2,0.2,0.3c0,0.2-0.2,0.3-0.1,0.5c0,0.1,0,0.2,0,0.2c0.3,0.3,0.5,0.5,0.8,0.8l0.1,0.1c0.1,0,0.1,0.2,0.2,0.2
				c0.1,0.1,0,0.2,0.1,0.3c0.1,0.1,0.2,0.3,0.4,0.4c0.2,0.2,0.4,0.1,0.6,0.2c0,0,0.1,0.1,0.2,0.1c0.2,0.1,0.4,0.1,0.6,0
				c0.1-0.1,0.2-0.2,0.3-0.3c0.1-0.1,0.4-0.1,0.6-0.1c0,0,0.1,0,0.1-0.1c0-0.1,0.1-0.2,0.1-0.3c0.1,0,0.3-0.1,0.4-0.1
				c0.2-0.1,0.4-0.4,0.6-0.6c0.2-0.2,0.6-0.1,0.7-0.4c0.1-0.2,0-0.5,0.1-0.8c0.1-0.1,0.1-0.3,0.2-0.4c0-0.2,0-0.5,0-0.7
				c0-0.1-0.2-0.3-0.1-0.4c0-0.1,0.2-0.1,0.2-0.2c0.1-0.2,0.2-0.4,0.3-0.6l0.1-0.1c0.1-0.1,0-0.2,0-0.2c-0.1,0-0.1-0.1-0.1-0.1
				c-0.2-0.3-0.4-0.6-0.7-0.7c-0.1,0-0.1-0.1-0.1-0.2v-0.1c-0.1,0-0.1-0.1-0.1-0.2h0.1l0,0l0,0c0.1-0.2,0.2-0.4,0.3-0.5
				c0,0,0.2,0,0.2-0.1c0-0.2,0-0.3,0-0.5c-0.1-0.2,0-0.4,0-0.6c0-0.4,0-0.7-0.2-1.1c0-0.1-0.1-0.2-0.3-0.2c-0.1,0-0.1,0.1-0.1,0.2
				s-0.1,0.1-0.1,0.2c-0.1,0.1-0.2,0.2-0.3,0.3c0,0.1,0,0.2-0.1,0.2c-0.1,0.1-0.1,0.2-0.2,0.2s-0.3,0.1-0.4,0.1c-0.1,0-0.3,0-0.5,0
				c-0.8-0.2-1.5-0.5-2.3-0.8v-0.1c0.1-0.1,0.3,0,0.4,0c0.1,0,0-0.1,0-0.1c0.2,0,0.3,0.2,0.5,0.2c0.3,0.1,0.7,0.1,1,0.2
				c0.3,0.1,0.5,0.3,0.7,0.3c0.2,0.1,0.4-0.1,0.5-0.2v-0.1c0.1-0.1,0.2-0.2,0.3-0.4c0-0.1,0-0.2,0-0.4c0-0.1,0.1-0.1,0.1-0.2
				c0-0.2,0-0.4,0-0.5c0.1,0,0.2-0.1,0.1-0.1v-0.1c0-0.1,0-0.2,0-0.3c0.1-0.3,0-0.5-0.1-0.7c-0.1-0.1-0.2-0.1-0.3-0.1l-0.1,0.1
				c-0.1,0-0.2,0.1-0.3,0.1c-0.1,0.1-0.1,0.3-0.2,0.3c-0.2,0.1-0.3,0.3-0.5,0.3c-0.1,0.1-0.3,0-0.3-0.1c-0.1-0.3,0.3-0.3,0.5-0.3
				l0.1-0.1c0.1-0.1,0.1-0.3,0.2-0.3c0.1,0,0.2,0,0.3,0c0.1,0,0.1-0.1,0.2-0.1c0.1,0,0.1-0.2,0.1-0.2c0-0.1,0.2-0.2,0.3-0.3
				c0.1-0.3,0.1-0.6,0.3-0.8c0.1-0.1,0.1,0.2,0.1,0.2c0.1,0.1,0.3,0.1,0.4,0c0.1-0.1,0-0.3,0.1-0.3s0.1,0,0.2,0
				c0.1,0.1,0.2,0.2,0.3,0.1c0.1,0,0.1-0.1,0.2-0.2c0.1,0,0.2,0,0.4-0.1c0.3-0.1,0.9,0.1,0.9-0.2c-0.1-0.5-0.4-0.8-0.8-1
				c-0.3-0.2-0.2-0.6-0.5-0.9c-0.1-0.1,0-0.2-0.1-0.2l-0.1-0.1l-0.1-0.1c0-0.2-0.1-0.5,0.1-0.7c0.1-0.1,0.2-0.1,0.3-0.2
				c0.1-0.1,0.3-0.1,0.3-0.3s0-0.4,0-0.6c0-0.1,0.1-0.1,0.2-0.1c0.3,0,0.7,0.1,1-0.1c0.1-0.1,0.1-0.2,0.1-0.2
				c0.2-0.4,0.6-0.6,0.6-1.1c0-0.1,0.1-0.1,0.2-0.2C-208.8,402.2-208.8,402.1-208.9,402.1z M-215.3,409.7
				C-215.3,409.7-215.3,409.8-215.3,409.7c-0.1,0.1-0.2,0.1-0.2,0c0-0.1-0.1-0.2-0.2-0.2c-0.1,0-0.2,0-0.2,0.1c-0.1-0.1-0.2,0-0.3,0
				c0-0.1-0.1-0.1-0.2-0.2c-0.1-0.1-0.1-0.2,0.1-0.3c0.1,0,0.2,0,0.2,0.1l0,0v0.1c0.1,0.1,0.2,0,0.3,0c0.1,0.1,0.3,0,0.4,0v0.1
				C-215.2,409.4-215.2,409.6-215.3,409.7C-215.2,409.7-215.3,409.7-215.3,409.7z"/>
			<g>
				<path class="st0" d="M-228.4,434.3c1.8-2.7,7.3-5.6,12.7-5.6c5.4,0,11.3,3.1,13.6,1.5c0,0-2.4,2-7.1,2c-4.8,0-6.6-2.4-9.9-2.4
					c-3.3,0-6.8,2.7-8.3,5L-228.4,434.3z"/>
				<path class="st0" d="M-211.3,428.4c0,0,1.6-0.9,2.4-2.7c0.8-1.7,3-4.5,5.2-6.2c0,0-2.5,7.8-5,8.1c0,0-0.4,0.2,0.3,0.1
					c0.7-0.1,4-1.3,5.1-1.5c1.1-0.2,3.9-0.8,4.7-1.6c0.6-0.6,1.1-0.5,1.1-0.5s-3.1,5.2-8.7,5.2C-206.3,429.3-209,429-211.3,428.4z"
					/>
				<path class="st0" d="M-204.7,425.7c0,0,0.6-0.9,0.7-2.5c0.1-1.5,1.1-5.1,3.8-9c0,0,0.4,6.1-2.7,9.9c0,0-0.2,0.5,0.2,0.1
					c0.4-0.4,2.3-2.7,6.5-5.5c0,0,2.2-1.8,2.3-2.4C-193.9,416.4-195.6,425.1-204.7,425.7z"/>
				<path class="st0" d="M-199.4,419.9c0,0,0.2-1,0.2-1.8c0-0.8-0.4-3.7-0.4-5c0-1.3,0.1-3.6,1.1-5.2c0,0,0,1.4,0.3,2
					c0.3,0.6,0.7,3.2,0.7,3.5s-0.1,2.5-0.6,3.6c0,0,0.4-0.2,0.8-1.1c0.4-0.8,1.5-2.4,3.1-4c1.6-1.6,2-3.1,2-3.1s0.4,2.8-1.7,5.8
					c-2.1,3-3,2.5-4.1,3.7C-197.9,418.4-199.3,419.9-199.4,419.9z"/>
				<path class="st0" d="M-196.1,413c0,0-0.1-1.7-0.4-2.3c-0.3-0.6-2.2-4-1.8-8.4c0,0,0.3-0.3,0.9,1.4c0.6,1.7,1.4,2.2,1.7,3.9
					c0.3,1.7,0.3,2.4,0.3,2.4s0.2,0.2,0.2,0s0.2-2.5,1.2-4.6c0.9-2.1,2.2-4.1,2.1-5.5c0,0,0.6,0,0.5,2.3
					C-191.6,404.6-192.2,408.6-196.1,413z"/>
				<path class="st0" d="M-195.1,406.1c0,0-0.7-1.6-1.2-2.1s-3.8-5.3-4-7.5c0,0,0.3-0.1,0.6,0.4c0.3,0.6,1.9,2.1,2.2,2.4
					c0.3,0.2,1.9,2,2.1,3.9c0,0,0.2,0.2-0.2-3c-0.3-3.2,1-5.2-0.1-7.4c0,0,1.5,0.2,2.4,6.7c0,0,0,2.3-1.2,5.1
					C-194.5,404.6-194.9,406.1-195.1,406.1z"/>
				<path class="st0" d="M-196.3,399c0,0-1.2-1.3-2.2-1.9c-1-0.6-4.1-3.6-4.6-6c0,0,0.2-0.3,1.2,1c0.8,1,1.5,0.5,3.8,3.4
					c0,0,0.3,0.6,0.5,0.6c0.2,0-0.1-0.7-0.1-0.7s-0.4-1.8-0.5-2.4c0-0.6-0.9-4-1.3-4.4c0,0,3,1.7,3.5,6.6
					C-196,395.2-196.1,398.8-196.3,399z"/>
				<path class="st0" d="M-198.9,393.8c0,0,0.2-4.3-5.4-6.4c0,0,2,4,3.4,4.9C-199.4,393.2-198.9,393.8-198.9,393.8z"/>
			</g>
		</g>
		<g>
			<path class="st0" d="M-213.3,434.3c-1.8-2.7-7.3-5.6-12.7-5.6s-11.3,3.1-13.6,1.5c0,0,2.4,2,7.2,2c4.8,0,6.6-2.4,9.9-2.4
				s6.8,2.7,8.3,5L-213.3,434.3z"/>
			<path class="st0" d="M-230.4,428.4c0,0-1.6-0.9-2.4-2.7c-0.8-1.7-3-4.5-5.2-6.2c0,0,2.4,7.8,5,8.1c0,0,0.4,0.2-0.3,0.1
				c-0.7-0.1-4-1.3-5.1-1.5c-1.1-0.2-4-0.8-4.7-1.6c-0.6-0.6-1.1-0.5-1.1-0.5s3.1,5.2,8.7,5.2C-235.4,429.3-232.7,429-230.4,428.4z"
				/>
			<path class="st0" d="M-237,425.7c0,0-0.6-0.9-0.7-2.5c-0.1-1.5-1.1-5.1-3.8-9c0,0-0.4,6.1,2.6,9.9c0,0,0.2,0.5-0.2,0.1
				c-0.4-0.4-2.3-2.7-6.5-5.5c0,0-2.2-1.8-2.3-2.4C-247.8,416.4-246.1,425.1-237,425.7z"/>
			<path class="st0" d="M-242.3,419.9c0,0-0.2-1-0.2-1.8c0-0.8,0.4-3.7,0.4-5c0-1.3-0.1-3.6-1.1-5.2c0,0,0,1.4-0.3,2
				s-0.7,3.2-0.7,3.5s0.1,2.5,0.6,3.6c0,0-0.4-0.2-0.8-1.1c-0.4-0.8-1.5-2.4-3.1-4s-2-3.1-2-3.1s-0.4,2.8,1.7,5.8
				c2.1,3,3,2.5,4.1,3.7C-243.7,418.4-242.4,419.9-242.3,419.9z"/>
			<path class="st0" d="M-245.6,413c0,0,0.1-1.7,0.4-2.3c0.3-0.6,2.2-4,1.8-8.4c0,0-0.3-0.3-0.9,1.4c-0.6,1.7-1.4,2.2-1.7,3.9
				c-0.3,1.7-0.3,2.4-0.3,2.4s-0.2,0.2-0.2,0s-0.2-2.5-1.1-4.6c-0.9-2.1-2.2-4.1-2.1-5.5c0,0-0.6,0-0.5,2.3
				C-250.1,404.6-249.5,408.6-245.6,413z"/>
			<path class="st0" d="M-246.6,406.1c0,0,0.7-1.6,1.2-2.1s3.7-5.3,4-7.5c0,0-0.3-0.1-0.6,0.4c-0.3,0.6-1.9,2.1-2.2,2.4
				c-0.3,0.2-1.9,2-2.1,3.9c0,0-0.1,0.2,0.2-3c0.3-3.2-1-5.2,0.1-7.4c0,0-1.5,0.2-2.4,6.7c0,0,0,2.3,1.2,5.1
				C-247.2,404.6-246.8,406.1-246.6,406.1z"/>
			<path class="st0" d="M-245.4,399c0,0,1.2-1.3,2.2-1.9c1-0.6,4.1-3.6,4.6-6c0,0-0.2-0.3-1.2,1c-0.8,1-1.5,0.5-3.8,3.4
				c0,0-0.3,0.6-0.5,0.6c-0.2,0,0.1-0.7,0.1-0.7s0.4-1.8,0.5-2.4c0-0.6,1-4,1.3-4.4c0,0-3.1,1.7-3.5,6.6
				C-245.7,395.2-245.6,398.8-245.4,399z"/>
			<path class="st0" d="M-242.8,393.8c0,0-0.2-4.3,5.4-6.4c0,0-1.9,4-3.4,4.9C-242.2,393.2-242.8,393.8-242.8,393.8z"/>
		</g>
	</g>
</g>
</svg>
