<?xml version="1.0" encoding="utf-8"?>
<!-- Generator: Adobe Illustrator 19.1.0, SVG Export Plug-In . SVG Version: 6.00 Build 0)  -->
<svg version="1.1" id="Layer_1" xmlns="http://www.w3.org/2000/svg" xmlns:xlink="http://www.w3.org/1999/xlink" x="0px" y="0px"
	 viewBox="0 0 500 250" style="enable-background:new 0 0 500 250;" xml:space="preserve">
<style type="text/css">
	.st0{fill:#18A8E0;}
	.st1{fill:#FFFFFF;}
</style>
<g>
	<path class="st0" d="M453.2,125.4c0,46.6-37.8,84.4-84.4,84.4H84.4C37.8,209.9,0,172.1,0,125.4l0,0C0,78.8,37.8,41,84.4,41h284.3
		C415.4,41,453.2,78.8,453.2,125.4L453.2,125.4z"/>
	<path class="st1" d="M170.9,121.7l-1-1v-1l-2-2v-3.9l-2-2h-5.9l-1-1h-3.9l-2-2v-1h-2v2l2,2h2l2,2h1v1l-4.9,4.9h-2.9l-1-1v-2l-2-2
		v-2l-2-2h-2v2l1,1v2.9l4.9,4.9h5.9v1l-7.9,7.9v2l1,1v4.9l-3.9,3.9v2h-1l-1,1v2l-3.9,3.9h-5.9v-3.9l-2-2v-3.9l-1-1v-2l2-2v-1l-2-2
		v-1l-2-2v-4.9h-2l-1-1h-2.9l-1,1h-4.9l-4.9-4.9v-3.9l1-1v-1h-1v-2l2.9-2.9h1l1-1v-2l1-1h4.9l1-1h4.9v2l1,1h3.9l1,1h1v-2h2l2,2h3.9
		l2-2v-2h-4.9l-2-2v-1h-1l-1,1h-1v-2.9l-2-2h-2.9v2l2,2h1v2h-2l-1-1v-1l-2-2h-2.9l-2,2v1l-1,1h-3.9l-1-1v-2.9l1-1h1l1,1h2v-2h-1v-1
		l1-1h2l2-2h1l1-1h1v-2h-2.9v-2l1-1h1l1-1v-1l1-1h1l2-2h8.8l1,1v2h1l2-2h1v2h1l2-2h5.9v-2h2l1,1v2h2v-2l2-2h1l1-1h4.9l0.3-0.3
		c-6.7-9.2-17.5-15-30.1-15c-19.6,0-30.4,14.2-30.4,14.2S98.1,65.2,78.4,65.2c-20.9,0-37.1,16.2-37.1,37.1
		c0,17.5,10.7,32.8,28.7,50.7l38.9,38.8l38.8-38.8c10.7-10.6,18.8-20.4,23.6-30.3h-0.4V121.7z M106.1,135l-2.9,2.9v5.9l-2,2h-2l-1,1
		v4.9l-2.9,2.9h-2l-2,2v2l-1,1v1l1,1h1v4.9h-2.9l-2-2v-2.9l-1-1v-3.9l-2-2v-2.9l-1-1v-8.8h-2l-2-2v-1l-2-2v-1l-2-2v-3.9l2-2v-2.9
		h-2.9l-1-1v-1l-2-2h-2.9v-1h-3.9l-1-1h-1l-2-2v-1l1-1v-1l-2.9-2.9v-2h-1v2.9l1,1l-1,1l-2-2v-4.9l-1-1v-2.9l2-2v-1l2-2v-2.9l-1-1v-2
		l-2-2h-3.9l-1,1h-3.9l-1-1v-1l1-1h2.9v-1l1-1h2l2-2H61l1,1h4.9l1-1h4.9l2,2h1V84l-1-1v-1h4.9v2h2l1,1v1h-2v1h3.9l1-1V83h2.9v1l-1,1
		v1h2v-2l1-1h4.9l2,2h1l2,2v1h-2.9l-1,1h-2v-1l1-1v-1h-3.9l-1,1h-1l-1,1v1h-5.9l-2,2v2l1,1h2.9v2h1l2-2h2v-3.9h3.9v2h1l1-1h2v2l1,1
		v1l-1,1v1l2,2v1h-2.9l-1-1v-1h-3.9l-3.9,3.9v1h-2l-2.9,2.9v1l-3.9,3.9v2.9h-1l-1-1v-2h-6.9l-2,2v2l-2,2l2,2h2l2-2h1l1,1v2h1l1,1
		v2.9h4.9l1-1h2.9v1l1,1h4.9l2,2h2l2,2v1l2,2h4.9l2,2h1V135z"/>
	<g>
		<g>
			<path class="st1" d="M217.8,69.2c0.5,0,0.7,0.3,0.7,0.8l-3.2,28.5c0,0.5-0.3,0.7-0.8,0.7h-3.7c-0.4,0-0.7-0.2-0.8-0.7l-3.9-16.9
				l-3.9,17c-0.1,0.4-0.4,0.6-0.8,0.6h-3.7c-0.5,0-0.7-0.2-0.8-0.7L193.8,70c0-0.5,0.2-0.8,0.7-0.8h3.6c0.4,0,0.7,0.3,0.8,0.7
				l1.5,17.5h0.2l3.7-17.6c0.1-0.4,0.4-0.7,0.8-0.7h2.2c0.4,0,0.7,0.2,0.8,0.7l3.7,17.6h0.2l1.5-17.5c0-0.4,0.3-0.7,0.8-0.7H217.8z"
				/>
			<path class="st1" d="M221.4,74.6c0-3.5,1.9-5.4,5.4-5.4h4.2c3.5,0,5.4,1.9,5.4,5.4v19.2c0,3.5-1.9,5.4-5.4,5.4h-4.2
				c-3.5,0-5.4-1.9-5.4-5.4V74.6z M230,94.3c1,0,1.5-0.5,1.5-1.5V75.5c0-1-0.5-1.5-1.5-1.5h-2.2c-1,0-1.5,0.5-1.5,1.5v17.3
				c0,1,0.5,1.5,1.5,1.5H230z"/>
			<path class="st1" d="M255,83.7c0,2.5-0.9,4.2-2.7,4.9l2.6,9.8c0.1,0.4-0.1,0.7-0.5,0.7h-3.9c-0.4,0-0.6-0.2-0.6-0.5l-2.5-9.5
				h-2.6v9.4c0,0.4-0.2,0.6-0.6,0.6h-3.9c-0.4,0-0.6-0.2-0.6-0.6V69.8c0-0.4,0.2-0.6,0.6-0.6h9.4c3.5,0,5.4,1.9,5.4,5.4V83.7z
				 M248.4,84.2c1,0,1.5-0.5,1.5-1.5v-7c0-1-0.5-1.5-1.5-1.5h-3.7v10H248.4z"/>
			<path class="st1" d="M263.3,94.2h6c0.4,0,0.6,0.2,0.6,0.6v3.7c0,0.4-0.2,0.6-0.6,0.6h-10.5c-0.4,0-0.6-0.2-0.6-0.6V69.8
				c0-0.4,0.2-0.6,0.6-0.6h3.9c0.4,0,0.6,0.2,0.6,0.6V94.2z"/>
			<path class="st1" d="M273,69.8c0-0.4,0.2-0.6,0.6-0.6h9c3.5,0,5.4,1.9,5.4,5.4v19.1c0,3.5-1.9,5.4-5.4,5.4h-9
				c-0.4,0-0.6-0.2-0.6-0.6V69.8z M281.5,94.2c1,0,1.5-0.5,1.5-1.5v-17c0-1-0.5-1.5-1.5-1.5h-3.4v20.1H281.5z"/>
			<path class="st1" d="M203.7,111c0-0.4,0.2-0.6,0.6-0.6h3.9c0.4,0,0.6,0.2,0.6,0.6v28.8c0,0.4-0.2,0.6-0.6,0.6h-3.9
				c-0.4,0-0.6-0.2-0.6-0.6v-11.9h-4.8v11.9c0,0.4-0.2,0.6-0.6,0.6h-3.9c-0.4,0-0.6-0.2-0.6-0.6V111c0-0.4,0.2-0.6,0.6-0.6h3.9
				c0.4,0,0.6,0.2,0.6,0.6v11.9h4.8V111z"/>
			<path class="st1" d="M225.8,110.4c0.4,0,0.7,0.3,0.7,0.7v23.8c0,3.5-1.9,5.4-5.4,5.4h-4.2c-3.5,0-5.4-1.9-5.4-5.4v-23.8
				c0-0.4,0.3-0.7,0.7-0.7h3.6c0.4,0,0.7,0.3,0.7,0.7v22.8c0,1,0.5,1.5,1.5,1.5h1.9c1,0,1.5-0.5,1.5-1.5v-22.8
				c0-0.4,0.3-0.7,0.7-0.7H225.8z"/>
			<path class="st1" d="M250.1,110.4c0.5,0,0.7,0.3,0.7,0.7v28.5c0,0.5-0.3,0.7-0.7,0.7h-3.5c-0.5,0-0.7-0.3-0.7-0.7v-16.8h-0.3
				l-3.7,16.9c-0.1,0.4-0.4,0.7-0.8,0.7h-1.8c-0.4,0-0.7-0.2-0.8-0.7l-3.7-16.9h-0.3v16.8c0,0.5-0.3,0.7-0.7,0.7h-3.4
				c-0.5,0-0.7-0.3-0.7-0.7v-28.5c0-0.5,0.3-0.7,0.7-0.7h4.9c0.4,0,0.7,0.2,0.8,0.7l4.2,18.6l4.2-18.6c0.1-0.4,0.4-0.7,0.8-0.7
				H250.1z"/>
			<path class="st1" d="M267.4,140.3c-0.3,0-0.5-0.2-0.6-0.5l-1-5.5h-6.7l-1,5.5c-0.1,0.3-0.3,0.5-0.6,0.5h-4
				c-0.4,0-0.6-0.2-0.5-0.6l6.2-28.8c0.1-0.4,0.3-0.5,0.6-0.5h5.2c0.3,0,0.6,0.1,0.6,0.5l6.2,28.8c0.1,0.4-0.1,0.6-0.5,0.6H267.4z
				 M262.4,116.9L260,130h4.8L262.4,116.9z"/>
			<path class="st1" d="M289.8,110.4c0.4,0,0.6,0.2,0.6,0.6v28.8c0,0.4-0.2,0.6-0.6,0.6h-3.7c-0.3,0-0.6-0.1-0.7-0.5l-5.7-16h-0.2
				v15.9c0,0.4-0.2,0.6-0.6,0.6H275c-0.4,0-0.6-0.2-0.6-0.6V111c0-0.4,0.2-0.6,0.6-0.6h3.7c0.3,0,0.6,0.1,0.7,0.5l5.7,15.9h0.2V111
				c0-0.4,0.2-0.6,0.6-0.6H289.8z"/>
			<path class="st1" d="M297.6,110.4c0.4,0,0.6,0.2,0.6,0.6v28.8c0,0.4-0.2,0.6-0.6,0.6h-3.9c-0.4,0-0.6-0.2-0.6-0.6V111
				c0-0.4,0.2-0.6,0.6-0.6H297.6z"/>
			<path class="st1" d="M315.1,110.4c0.4,0,0.6,0.2,0.6,0.6v3.7c0,0.4-0.2,0.6-0.6,0.6h-4.3v24.4c0,0.4-0.2,0.6-0.6,0.6h-3.9
				c-0.4,0-0.6-0.2-0.6-0.6v-24.4h-4.3c-0.4,0-0.6-0.2-0.6-0.6V111c0-0.4,0.2-0.6,0.6-0.6H315.1z"/>
			<path class="st1" d="M329.4,140.3c-0.3,0-0.5-0.2-0.6-0.5l-1-5.5h-6.7l-1,5.5c-0.1,0.3-0.3,0.5-0.6,0.5h-4
				c-0.4,0-0.6-0.2-0.5-0.6l6.2-28.8c0.1-0.4,0.3-0.5,0.6-0.5h5.2c0.3,0,0.6,0.1,0.6,0.5l6.2,28.8c0.1,0.4-0.1,0.6-0.5,0.6H329.4z
				 M324.4,116.9l-2.4,13.1h4.8L324.4,116.9z"/>
			<path class="st1" d="M351.7,124.9c0,2.5-0.9,4.2-2.7,4.9l2.6,9.8c0.1,0.4-0.1,0.7-0.5,0.7h-3.9c-0.4,0-0.6-0.2-0.6-0.5l-2.5-9.5
				h-2.6v9.4c0,0.4-0.2,0.6-0.6,0.6h-3.9c-0.4,0-0.6-0.2-0.6-0.6V111c0-0.4,0.2-0.6,0.6-0.6h9.4c3.5,0,5.4,1.9,5.4,5.4V124.9z
				 M345.1,125.3c1,0,1.5-0.5,1.5-1.5v-7c0-1-0.5-1.5-1.5-1.5h-3.7v10H345.1z"/>
			<path class="st1" d="M359.4,110.4c0.4,0,0.6,0.2,0.6,0.6v28.8c0,0.4-0.2,0.6-0.6,0.6h-3.9c-0.4,0-0.6-0.2-0.6-0.6V111
				c0-0.4,0.2-0.6,0.6-0.6H359.4z"/>
			<path class="st1" d="M376.9,140.3c-0.3,0-0.5-0.2-0.6-0.5l-1-5.5h-6.7l-1,5.5c-0.1,0.3-0.3,0.5-0.6,0.5h-4
				c-0.4,0-0.6-0.2-0.5-0.6l6.2-28.8c0.1-0.4,0.3-0.5,0.6-0.5h5.2c0.3,0,0.6,0.1,0.6,0.5l6.2,28.8c0.1,0.4-0.1,0.6-0.5,0.6H376.9z
				 M371.9,116.9l-2.4,13.1h4.8L371.9,116.9z"/>
			<path class="st1" d="M399.3,110.4c0.4,0,0.6,0.2,0.6,0.6v28.8c0,0.4-0.2,0.6-0.6,0.6h-3.7c-0.3,0-0.6-0.1-0.7-0.5l-5.7-16H389
				v15.9c0,0.4-0.2,0.6-0.6,0.6h-3.9c-0.4,0-0.6-0.2-0.6-0.6V111c0-0.4,0.2-0.6,0.6-0.6h3.7c0.3,0,0.6,0.1,0.7,0.5l5.7,15.9h0.2V111
				c0-0.4,0.2-0.6,0.6-0.6H399.3z"/>
			<path class="st1" d="M193.8,152.1c0-0.4,0.2-0.6,0.6-0.6h9c3.5,0,5.4,1.9,5.4,5.4v19.1c0,3.5-1.9,5.4-5.4,5.4h-9
				c-0.4,0-0.6-0.2-0.6-0.6V152.1z M202.3,176.5c1,0,1.5-0.5,1.5-1.5v-17c0-1-0.5-1.5-1.5-1.5h-3.4v20.1H202.3z"/>
			<path class="st1" d="M225,181.5c-0.3,0-0.5-0.2-0.6-0.5l-1-5.5h-6.7l-1,5.5c-0.1,0.3-0.3,0.5-0.6,0.5h-4c-0.4,0-0.6-0.2-0.5-0.6
				l6.2-28.8c0.1-0.4,0.3-0.5,0.6-0.5h5.2c0.3,0,0.6,0.1,0.6,0.5l6.2,28.8c0.1,0.4-0.1,0.6-0.5,0.6H225z M220,158.1l-2.4,13.1h4.8
				L220,158.1z"/>
			<path class="st1" d="M245.5,151.5c0.6,0,0.8,0.3,0.6,0.9l-6.9,16.7v11.7c0,0.5-0.3,0.7-0.7,0.7h-3.6c-0.5,0-0.7-0.3-0.7-0.7
				v-11.7l-6.9-16.7c-0.2-0.5,0-0.9,0.6-0.9h3.7c0.4,0,0.7,0.2,0.9,0.6l4.2,10.7l4.2-10.7c0.1-0.4,0.4-0.6,0.9-0.6H245.5z"/>
		</g>
	</g>
</g>
</svg>
