<?xml version="1.0" encoding="utf-8"?>
<!-- Generator: Adobe Illustrator 19.1.0, SVG Export Plug-In . SVG Version: 6.00 Build 0)  -->
<svg version="1.1" id="Layer_1" xmlns="http://www.w3.org/2000/svg" xmlns:xlink="http://www.w3.org/1999/xlink" x="0px" y="0px"
	 viewBox="0 0 500 250" style="enable-background:new 0 0 500 250;" xml:space="preserve">
<style type="text/css">
	.st0{fill:#00A6E6;}
	.st1{fill:#00B0EA;}
	.st2{fill:#A762A3;}
	.st3{fill:#51AD32;}
	.st4{fill:#E74E0F;}
	.st5{fill:#F6A500;}
	.st6{fill:#AEC90B;}
</style>
<g>
	<path class="st0" d="M200.2,175.3c-4.3,0-7.6-0.9-10.3-3.7l3.6-3.6c1.8,1.8,4.2,2.4,6.8,2.4c3.3,0,5-1.2,5-3.5c0-1-0.3-1.8-0.9-2.4
		c-0.6-0.5-1.2-0.8-2.5-1l-3.4-0.5c-2.4-0.4-4.2-1.1-5.5-2.3c-1.4-1.4-2-3.2-2-5.6c0-5.1,3.7-8.6,9.9-8.6c3.9,0,6.7,1,9.2,3.3
		l-3.5,3.5c-1.8-1.7-3.9-2-5.8-2c-2.9,0-4.4,1.6-4.4,3.6c0,0.7,0.2,1.5,0.8,2c0.6,0.5,1.5,1,2.6,1.1l3.3,0.5
		c2.6,0.4,4.2,1.1,5.4,2.2c1.5,1.4,2.2,3.5,2.2,6C210.7,172.2,206.1,175.3,200.2,175.3z"/>
	<path class="st0" d="M223.9,175.3c-5.8,0-10.4-3.9-10.4-9.9v-18.6h5.5v18.4c0,3.3,1.9,5.2,4.9,5.2c3,0,4.9-1.9,4.9-5.2v-18.4h5.5
		v18.6C234.3,171.3,229.7,175.3,223.9,175.3z"/>
	<path class="st0" d="M257.8,175v-16.5l-5.4,10.7h-3.7l-5.5-10.7V175h-5.5v-28.3h5.5l7.4,15.3l7.4-15.3h5.5V175H257.8z"/>
	<path class="st0" d="M287.3,175v-16.5l-5.4,10.7h-3.7l-5.4-10.7V175h-5.5v-28.3h5.5L280,162l7.4-15.3h5.4V175H287.3z"/>
	<path class="st0" d="M296.6,175v-28.3h5.5V175H296.6z"/>
	<path class="st0" d="M317.5,151.6V175H312v-23.4h-7.4v-4.9h20.3v4.9H317.5z"/>
	<g>
		<path class="st1" d="M216.5,98.3h-4.6l-5.2-17.2l-5.2,17.2h-4.6L189.3,70h5.8l4.4,17.9l5.2-17.9h4.1l5.2,17.9l4.4-17.9h5.8
			L216.5,98.3z"/>
		<path class="st0" d="M242.4,95.4c-2,2-4.4,3.1-7.6,3.1c-3.2,0-5.7-1.1-7.7-3.1c-2.9-2.9-2.8-6.4-2.8-11.3c0-4.9-0.1-8.4,2.8-11.3
			c2-2,4.5-3.1,7.7-3.1c3.2,0,5.7,1.1,7.6,3.1c2.9,2.9,2.8,6.4,2.8,11.3C245.3,89,245.3,92.6,242.4,95.4z M238.3,76.2
			c-0.8-0.9-2-1.5-3.5-1.5c-1.5,0-2.8,0.6-3.6,1.5c-1.1,1.2-1.4,2.5-1.4,8c0,5.5,0.3,6.8,1.4,8c0.8,0.9,2.1,1.5,3.6,1.5
			c1.5,0,2.7-0.6,3.5-1.5c1.1-1.2,1.4-2.5,1.4-8C239.7,78.7,239.4,77.4,238.3,76.2z"/>
		<path class="st0" d="M263.9,98.3L258.4,87h-4v11.3h-5.5V70H260c5.8,0,9.2,3.9,9.2,8.7c0,4-2.4,6.4-5.2,7.4l6.3,12.2H263.9z
			 M259.6,74.9h-5.2v7.5h5.2c2.4,0,4-1.5,4-3.7C263.7,76.5,262.1,74.9,259.6,74.9z"/>
		<path class="st0" d="M273.7,98.3V70h5.5v23.4h11.6v4.9H273.7z"/>
		<path class="st0" d="M311.5,95.6c-1.9,1.9-4.5,2.7-7.5,2.7h-10.2V70H304c2.9,0,5.6,0.8,7.5,2.7c3.2,3.2,2.9,7.1,2.9,11.3
			C314.4,88.3,314.7,92.4,311.5,95.6z M307.6,76.7c-1-1.2-2.2-1.8-4.1-1.8h-4.2v18.5h4.2c1.9,0,3.2-0.6,4.1-1.8
			c1-1.3,1.2-3.3,1.2-7.6C308.8,79.7,308.7,77.9,307.6,76.7z"/>
		<path class="st0" d="M207.5,136.7v-11.9h-9.6v11.9h-5.5v-28.3h5.5v11.6h9.6v-11.6h5.5v28.3H207.5z"/>
		<path class="st0" d="M227.6,136.9c-5.8,0-10.4-3.9-10.4-9.9v-18.6h5.5v18.4c0,3.3,1.9,5.2,4.9,5.2c3,0,4.9-1.9,4.9-5.2v-18.4h5.5
			V127C238.1,133,233.4,136.9,227.6,136.9z"/>
		<path class="st0" d="M262.4,136.7v-16.5l-5.4,10.7h-3.7l-5.5-10.7v16.5h-5.5v-28.3h5.5l7.4,15.3l7.4-15.3h5.5v28.3H262.4z"/>
		<path class="st0" d="M288.6,136.7l-1.7-5h-10.1l-1.7,5h-5.8l10.3-28.3h4.3l10.3,28.3H288.6z M282,116.7l-3.6,10.3h7L282,116.7z"/>
		<path class="st0" d="M312.6,136.7l-11.2-17.4v17.4h-5.5v-28.3h4.9l11.2,17.3v-17.3h5.5v28.3H312.6z"/>
		<path class="st0" d="M322.1,136.7v-28.3h5.5v28.3H322.1z"/>
		<path class="st0" d="M343.1,113.3v23.4h-5.5v-23.4h-7.4v-4.9h20.3v4.9H343.1z"/>
		<path class="st0" d="M366.7,136.7l-1.7-5H355l-1.7,5h-5.8l10.3-28.3h4.3l10.3,28.3H366.7z M360.1,116.7l-3.6,10.3h7L360.1,116.7z"
			/>
		<path class="st0" d="M389.8,136.7l-5.5-11.3h-4v11.3h-5.5v-28.3h11.1c5.8,0,9.2,3.9,9.2,8.7c0,4-2.4,6.4-5.2,7.4l6.3,12.2H389.8z
			 M385.5,113.3h-5.2v7.5h5.2c2.4,0,4-1.6,4-3.7C389.6,114.8,388,113.3,385.5,113.3z"/>
		<path class="st0" d="M398.8,136.7v-28.3h5.5v28.3H398.8z"/>
		<path class="st0" d="M425.9,136.7l-1.7-5h-10.1l-1.7,5h-5.8l10.3-28.3h4.3l10.3,28.3H425.9z M419.3,116.7l-3.6,10.3h7L419.3,116.7
			z"/>
		<path class="st0" d="M449.9,136.7l-11.2-17.4v17.4h-5.5v-28.3h4.9l11.2,17.3v-17.3h5.5v28.3H449.9z"/>
		<g>
			<g>
				<path class="st2" d="M121.2,84.6c-6.3,1.8-12.6,0.9-18.8-2.6c-6.2-3.5-10.1-8.5-11.8-14.8c-1.3-4.8-1-9.7,0.8-14.5l-10-5.7
					c-2.8,7.1-3.1,14.6-0.9,22.5c2.7,9.4,8.3,16.5,16.9,21.4c8.6,4.9,17.6,6.1,27.2,3.6c7.9-2.1,14.1-6.1,18.8-12.2l-10-5.7
					C130,80.5,126,83.2,121.2,84.6z"/>
				<path class="st2" d="M106.3,55.9c-2.6,4.5-1,10.3,3.5,12.9c4.5,2.6,10.3,1,12.8-3.5c2.6-4.5,1-10.3-3.5-12.8
					C114.7,49.8,108.9,51.4,106.3,55.9z"/>
			</g>
			<g>
				<path class="st3" d="M91.4,182.6c1.6-6.4,5.5-11.4,11.6-15c6.1-3.6,12.4-4.6,18.7-2.9c4.8,1.3,8.9,3.9,12.2,7.9l9.9-5.8
					c-4.7-6-11.1-10-19.1-12c-9.4-2.4-18.4-1-27,4c-8.5,5-14,12.2-16.6,21.8c-2.1,7.8-1.7,15.3,1.2,22.4l9.9-5.8
					C90.5,192.3,90.2,187.5,91.4,182.6z"/>
				<path class="st3" d="M120.7,180.5c-2.5-4.2-7.9-5.6-12.1-3.1c-4.2,2.5-5.6,7.9-3.1,12.1c2.5,4.2,7.9,5.6,12.1,3.1
					C121.8,190,123.2,184.6,120.7,180.5z"/>
			</g>
			<g>
				<path class="st4" d="M64.8,67.4c-1.6,6.4-5.5,11.4-11.6,15c-6.1,3.6-12.4,4.6-18.7,2.9c-4.8-1.3-8.9-3.9-12.2-7.9l-9.9,5.8
					c4.7,6,11.1,10,19.1,12c9.4,2.4,18.4,1,27-4c8.5-5,14-12.2,16.6-21.8c2.1-7.8,1.7-15.3-1.2-22.4l-9.9,5.8
					C65.7,57.7,66.1,62.5,64.8,67.4z"/>
				<path class="st4" d="M35.5,69.5c2.5,4.2,7.9,5.6,12.1,3.1c4.2-2.5,5.6-7.9,3.1-12.1c-2.5-4.2-7.9-5.6-12.1-3.1
					C34.4,60,33,65.4,35.5,69.5z"/>
			</g>
			<g>
				<path class="st1" d="M134.8,141.9c-4.7-4.6-7-10.5-7-17.6c0-7.1,2.4-13,7-17.6c3.6-3.5,7.9-5.7,13-6.5l0-11.5
					c-7.6,1-14.2,4.5-20,10.3c-6.8,6.9-10.3,15.4-10.3,25.3c0,9.8,3.4,18.3,10.3,25.4c5.7,5.8,12.3,9.2,19.9,10.3l0-11.5
					C142.7,147.6,138.4,145.4,134.8,141.9z"/>
				<path class="st1" d="M147.8,115.5c-4.9,0-8.8,3.9-8.8,8.8c0,4.9,3.9,8.8,8.8,8.8c4.9,0,8.8-3.9,8.8-8.8
					C156.6,119.4,152.7,115.5,147.8,115.5z"/>
			</g>
			<g>
				<path class="st5" d="M21.8,107.7c4.7,4.6,7,10.5,7,17.6c0,7.1-2.4,13-7,17.6c-3.6,3.5-7.9,5.7-13,6.5l0,11.5
					c7.6-1,14.2-4.5,20-10.3c6.8-6.9,10.3-15.4,10.3-25.3c0-9.8-3.4-18.3-10.3-25.4c-5.7-5.8-12.3-9.2-19.9-10.3l0,11.5
					C13.9,102,18.2,104.2,21.8,107.7z"/>
				<path class="st5" d="M8.8,134.1c4.9,0,8.8-3.9,8.8-8.8c0-4.9-3.9-8.8-8.8-8.8c-4.9,0-8.8,3.9-8.8,8.8
					C0,130.2,3.9,134.1,8.8,134.1z"/>
			</g>
			<g>
				<path class="st6" d="M51.2,189.8c2.4-4.2,0.9-9.6-3.3-12c-4.2-2.4-9.6-0.9-12,3.3c-2.4,4.2-0.9,9.6,3.3,12
					C43.4,195.5,48.8,194,51.2,189.8z"/>
				<path class="st6" d="M34.7,165.4c6.3-1.8,12.6-0.9,18.8,2.6c6.2,3.5,10.1,8.5,11.8,14.8c1.3,4.8,1,9.7-0.8,14.5l10,5.7
					c2.8-7.1,3.1-14.6,0.9-22.5c-2.7-9.4-8.3-16.5-16.9-21.4c-8.6-4.9-17.6-6.1-27.2-3.6c-7.9,2.1-14.1,6.1-18.8,12.2l10,5.7
					C25.8,169.5,29.9,166.8,34.7,165.4z"/>
			</g>
		</g>
	</g>
</g>
</svg>
